<?xml version="1.0" encoding="utf-8"?>
<!-- Generator: Adobe Illustrator 25.0.0, SVG Export Plug-In . SVG Version: 6.00 Build 0)  -->
<svg version="1.1" id="Layer_1" xmlns="http://www.w3.org/2000/svg" xmlns:xlink="http://www.w3.org/1999/xlink" x="0px" y="0px"
	 viewBox="0 0 216 216" style="enable-background:new 0 0 216 216;" xml:space="preserve">
<style type="text/css">
	.st0{fill:#231F20;}
	.st1{fill-rule:evenodd;clip-rule:evenodd;fill:#EF4137;}
</style>
<g>
	<g>
		<path class="st0" d="M93.87,98.68c0.33-0.02,0.48-0.22,0.48-0.63c0.01-0.3-0.04-0.59-0.34-0.63c-0.25-0.04-0.55,0.39-0.55,0.75
			C93.44,98.47,93.63,98.7,93.87,98.68z"/>
		<path class="st0" d="M91.75,57.9c-0.14-0.06-0.28-0.11-0.42-0.17c-0.02,0.07-0.05,0.14-0.07,0.22c0.14,0.04,0.28,0.08,0.43,0.11
			C91.7,58.06,91.73,57.96,91.75,57.9z"/>
		<path class="st0" d="M131.06,84.93c0.02,0.13,0.1,0.24,0.15,0.36c0.16-0.14,0.26-0.23,0.47-0.42c-0.21-0.08-0.35-0.15-0.49-0.17
			C131.15,84.69,131.05,84.86,131.06,84.93z"/>
		<path class="st0" d="M131.71,84.6c0,0.23,0,0.39,0,0.62c0.12-0.06,0.25-0.09,0.32-0.18c0.04-0.06,0.03-0.25-0.03-0.32
			C131.94,84.65,131.8,84.63,131.71,84.6z"/>
		<path class="st0" d="M137.16,138.77c-0.03,0.06-0.1,0.16-0.1,0.16c0.1,0.11,0.2,0.21,0.31,0.29c0.01,0.01,0.13-0.11,0.12-0.13
			c-0.05-0.15-0.13-0.3-0.19-0.44C137.26,138.68,137.21,138.73,137.16,138.77z"/>
		<path class="st0" d="M93.79,100.91c0,0,0.01,0.01,0.01,0.01c0,0,0,0,0,0L93.79,100.91z"/>
		<path class="st0" d="M75.96,95.44c0.48-0.23,0.96-0.46,1.46-0.62c0.3-0.1,0.6-0.15,0.86-0.36c0.1-0.08,0.31-0.04,0.53-0.05
			c0.22-0.42,0.72-0.5,1.15-0.67c0.63-0.25,1.28-0.47,1.93-0.69c0.56-0.19,1.12-0.36,1.67-0.56c0.5-0.18,0.99-0.4,1.49-0.58
			c0.2-0.07,0.26-0.22,0.29-0.39c0.16-1.15,0.32-2.31,0.47-3.46c0.04-0.3,0.04-0.61-0.15-0.89c-0.05-0.08-0.04-0.2-0.07-0.3
			c-0.03-0.11-0.06-0.22-0.12-0.3c-0.48-0.56-1.3-0.74-2.02-0.49c-0.26,0.09-0.54,0.19-0.83,0.04c-0.09-0.05-0.22-0.06-0.33-0.05
			c-0.6,0.03-1.17-0.04-1.7-0.39c-0.24-0.16-0.62-0.11-0.94-0.15c-0.02,0-0.04,0.01-0.06,0c-0.7-0.22-1.41-0.43-2.11-0.67
			c-0.09-0.03-0.13-0.17-0.15-0.2c-0.19,0.04-0.37,0.15-0.49,0.11c-0.71-0.27-1.42-0.55-2.09-0.89c-0.59-0.3-1.17-0.65-1.71-1.04
			c-0.31-0.22-0.62-0.46-0.92-0.7c0,0.01,0,0.01,0.01,0.02c0.04,0.16,0.01,0.35,0.01,0.52c-0.01,0.23-0.02,0.46-0.03,0.7
			c-0.04,0-0.13,0.01-0.21,0.02c0.01,0.45-0.1,0.92,0.36,1.1c-0.32,0.5-0.35,1-0.29,1.53c0.04,0.29,0.04,0.59,0.05,0.89
			c0.01,0.24-0.01,0.48,0.02,0.72c0.03,0.25,0.16,0.5,0.14,0.74c-0.05,0.57-0.18,1.12-0.25,1.69c-0.02,0.18,0.02,0.41,0.11,0.56
			c0.18,0.32,0.2,0.62,0.02,0.93c-0.07,0.11-0.13,0.26-0.12,0.38c0.02,0.32,0.16,0.64-0.01,0.97c-0.02,0.04,0,0.15,0.04,0.18
			c0.19,0.16,0.12,0.32,0.05,0.52c-0.05,0.14,0,0.33,0.02,0.5c0.01,0.11,0.1,0.28,0.06,0.33c-0.23,0.36,0.06,0.69,0.02,1.03
			c-0.03,0.22-0.03,0.45-0.05,0.7c0.11,0.3,0.23,0.65,0.37,1.04c0.32-0.18,0.65-0.35,0.97-0.52C74.25,96.28,75.1,95.85,75.96,95.44z
			"/>
		<path class="st0" d="M78.81,124.44c1.8-0.26,3.61-0.51,5.41-0.77c0.4-0.06,0.79-0.12,1.19-0.19c0.17-0.6,0.02-1.17-0.09-1.73
			c-0.02-0.12-0.24-0.24-0.38-0.28c-0.5-0.13-1-0.22-1.51-0.33c-0.52-0.11-1.04-0.23-1.56-0.34c-0.09-0.02-0.21-0.03-0.28,0.02
			c-0.27,0.21-0.5,0.05-0.73-0.06c0.02-0.09,0.04-0.18,0.06-0.28c-0.33,0-0.61-0.01-0.88,0.01c-0.21,0.01-0.45,0.02-0.61,0.13
			c-0.32,0.22-0.6,0.16-0.92,0.04c-0.33-0.12-0.69-0.19-1.03-0.29c-0.1-0.03-0.18-0.12-0.29-0.17c-0.08-0.04-0.17-0.1-0.25-0.09
			c-0.52,0.02-1.27-0.13-1.87-0.37c-1.23-0.5-2.31-1.22-3.21-2.17c-0.03,0.17-0.04,0.34,0.11,0.51c0.08,0.09,0.1,0.28,0.15,0.42
			c-0.02,0.01-0.04,0.02-0.06,0.03c0.08,0.08,0.17,0.16,0.37,0.35c-0.79,0.04-0.52,0.62-0.56,1.05c-0.03,0.34,0.07,0.59,0.29,0.84
			c0.14,0.16,0.15,0.5,0.19,0.77c0,0.03-0.22,0.1-0.41,0.18c-0.02,0.59-0.05,1.26-0.05,1.93c0,0.59,0.05,1.19,0.08,1.78
			c0,0.09-0.03,0.18-0.06,0.27c-0.04,0.12-0.06,0.24-0.07,0.36c0.33-0.02,0.65-0.12,0.97-0.21
			C74.76,125.24,76.76,124.73,78.81,124.44z"/>
		<path class="st0" d="M113.4,138.51c-0.82-0.8-1.81-1.44-2.37-2.51c-0.2-0.38-0.57-0.66-0.82-1.02c-0.84-1.24-1.12-2.66-1.11-4.12
			c0-1.12,0.26-2.21,0.78-3.22c0.17-0.32,0.37-0.62,0.6-0.9c0.1-0.12,0.3-0.22,0.45-0.22c0.47,0,0.77-0.31,1.09-0.57
			c0.46-0.37,0.87-0.79,1.31-1.19c0.43,0,0.8,0,1.24,0c-0.02,0.35-0.01,0.76-0.09,1.14c-0.04,0.22,0.02,0.37,0.1,0.54
			c0.29,0.62,0.84,0.99,1.33,1.42c0.09,0.07,0.2,0.12,0.28,0.21c0.39,0.42,0.84,0.65,1.42,0.77c1.43,0.29,2.86,0.56,4.32,0.6
			c1.59,0.05,3.17,0.17,4.76,0.01c1.44-0.15,2.89-0.24,4.34-0.35c0.61-0.05,1.22-0.09,1.83-0.11c0.72-0.02,1.45-0.04,2.18-0.04
			c1.59,0,3.18,0,4.78,0.02c0.36,0.01,0.73,0.08,1.06,0.21c0.22,0.08,0.43,0.17,0.64,0.25c0-0.92-0.01-1.83-0.02-2.75
			c0-0.11-0.04-0.25-0.1-0.33c-0.34-0.44-0.4-0.98-0.3-1.51c0.08-0.41,0.23-0.8,0.34-1.21c-0.09-0.05-0.17-0.12-0.24-0.22
			c-0.19-0.28-0.46-0.36-0.8-0.27c-0.31,0.09-0.61,0.08-0.94-0.06c-0.56-0.22-1.15-0.34-1.73-0.51c-0.09-0.03-0.19-0.03-0.28-0.03
			c-0.56-0.01-0.57-0.01-0.85-0.45c-0.27,0.04-0.53,0.09-0.81,0.13c0.01-0.17,0.02-0.29,0.02-0.39c-0.4-0.09-0.75-0.2-1.12-0.26
			c-0.14-0.02-0.29,0.04-0.43,0.08c-0.19,0.06-0.37,0.14-0.56,0.21c-0.03-0.04-0.05-0.09-0.08-0.13c0.12-0.1,0.23-0.21,0.39-0.34
			c-0.1-0.05-0.17-0.11-0.25-0.11c-0.21-0.01-0.42,0.02-0.63,0c-0.31-0.04-0.52-0.26-0.46-0.53c0.04-0.2,0.04-0.37-0.13-0.45
			c-0.23-0.11-0.34,0.08-0.44,0.26c-0.03,0.05-0.06,0.1-0.07,0.12c-0.81-0.18-0.81-0.18-1.13,0.02c-0.46-0.22-0.92-0.46-1.41-0.66
			c-0.23-0.09-0.5-0.1-0.75-0.11c-0.06,0-0.13,0.15-0.22,0.26c0-0.23,0-0.43,0-0.74c-0.25,0.24-0.43,0.42-0.65,0.63
			c-0.23-0.26-0.5-0.17-0.77-0.1c-0.22,0.06-0.45,0.12-0.65-0.09c-0.04-0.04-0.1-0.07-0.15-0.07c-0.44,0.02-0.87,0.03-1.3,0.06
			c-0.55,0.04-1.1,0.07-1.64,0.16c-0.85,0.14-1.68,0.33-2.52,0.51c-0.29,0.06-0.58,0.14-0.86,0.21c-0.01-0.05-0.02-0.1-0.04-0.14
			c0.93-0.28,1.86-0.54,2.79-0.83c0.44-0.14,0.86-0.33,1.3-0.47c0.49-0.16,0.98-0.29,1.47-0.44c0.09-0.03,0.19-0.04,0.28-0.08
			c1.16-0.61,2.43-0.9,3.63-1.37c0.84-0.33,1.64-0.74,2.46-1.12c0.28-0.13,0.55-0.27,0.82-0.41c1.09-0.57,2.03-1.37,2.93-2.2
			c0.21-0.19,0.25-0.35,0.1-0.6c-0.37-0.6-0.72-1.22-1.08-1.83c-0.04-0.08-0.14-0.12-0.26-0.22c-0.16,0.66-0.64,0.74-1.14,0.7
			c-0.12,0.17-0.19,0.36-0.32,0.44c-0.14,0.08-0.35,0.04-0.53,0.06c-0.09,0.01-0.17,0.03-0.26,0.04c-0.14,0.01-0.27,0-0.44,0
			c-0.05,0.41-0.72,0.53-0.46,1.1c-0.2,0.09-0.36,0.15-0.64,0.27c0.19-0.25,0.3-0.4,0.45-0.6c-0.37,0-0.71-0.13-0.9,0.3
			c-0.53,0.16-0.67,0.83-1.24,0.96c-0.09,0.02-0.18,0.14-0.22,0.24c-0.2,0.5-0.61,0.72-1.11,0.9c-0.22-0.23-0.49-0.29-0.83-0.14
			c0.1,0.47-0.49,0.53-0.53,0.99c-0.17-0.17-0.18-0.42-0.45-0.35c-0.3,0.08-0.23,0.31-0.22,0.5c-0.45,0.23-0.87,0.45-1.3,0.66
			c-0.1,0.05-0.22,0.11-0.32,0.09c-0.47-0.1-0.8,0.07-1.05,0.46c-0.02,0.03-0.06,0.08-0.08,0.07c-0.4-0.13-0.5,0.35-0.75,0.39
			c-0.6,0.08-0.94,0.61-1.49,0.78c-0.35,0.11-0.67,0.24-0.99-0.04c-0.03-0.03-0.11,0-0.17,0c-0.08,0.19-0.15,0.38-0.24,0.6
			c-0.36-0.15-0.69-0.24-0.98,0.06c-0.55-0.16-1.01,0.35-1.56,0.19c-0.17-0.05-0.38,0.03-0.56,0.06c-0.22,0.04-0.44,0.14-0.65,0.13
			c-0.64-0.02-1.29-0.07-1.93-0.13c-0.17-0.01-0.33-0.08-0.49-0.16c-0.54-0.27-1.08-0.56-1.62-0.84c-0.08-0.04-0.17-0.09-0.27-0.1
			c-0.54-0.06-0.9-0.4-1.21-0.8c-0.11-0.15-0.26-0.33-0.26-0.5c-0.01-0.38-0.18-0.7-0.32-1.03c-0.69-1.64-0.84-3.33-0.48-5.07
			c0.13-0.63,0.3-1.23,0.66-1.77c0.13-0.19,0.11-0.49,0.21-0.71c0.24-0.54,0.52-1.07,0.78-1.6c0.11-0.24,0.3-0.33,0.55-0.35
			c0.09-0.01,0.19-0.01,0.27-0.06c0.72-0.49,1.44-0.98,2.23-1.52c-0.17-0.15-0.28-0.32-0.44-0.38c-0.44-0.16-0.9-0.26-1.35-0.4
			c-1.33-0.41-2.37-1.22-3.05-2.46c-0.11-0.2-0.1-0.45-0.18-0.67c-0.21-0.55-0.45-1.08-0.66-1.63c-0.18-0.46-0.38-0.92-0.51-1.39
			c-0.06-0.24-0.01-0.53,0.03-0.79c0.03-0.24,0.13-0.48,0.17-0.72c0.08-0.45,0.43-0.66,0.73-0.92c0.08-0.07,0.19-0.12,0.3-0.18
			c0-0.29,0.02-0.58-0.01-0.86c-0.05-0.41,0-0.55,0.34-0.76c0.43-0.26,0.6-0.57,0.47-1.03c-0.13-0.46,0.08-0.88,0.07-1.33
			c0-0.2,0.05-0.43-0.01-0.61c-0.16-0.45-0.11-0.78,0.3-1.01c0.16-0.09,0.27-0.18,0.33-0.36c0.02-0.09,0.09-0.22,0.16-0.23
			c0.37-0.05,0.49-0.4,0.74-0.6c0.23-0.19,0.44-0.37,0.77-0.18c0.09,0.05,0.23,0,0.33,0.02c0.25,0.07,0.56,0.09,0.74,0.25
			c0.52,0.47,1.13,0.4,1.74,0.37c1.26-0.06,2.52-0.19,3.78-0.21c1.72-0.03,3.44,0.02,5.16,0.03c0.2,0,0.4-0.06,0.6-0.1
			c-0.11-0.61-0.21-1.15-0.3-1.7c-0.04-0.23-0.11-0.47-0.06-0.68c0.12-0.52-0.03-1-0.11-1.49c-0.05-0.34-0.29-0.58-0.61-0.62
			c-0.79-0.09-1.59-0.13-2.39-0.19c-0.06-0.01-0.12,0.02-0.17,0.01c-0.5-0.1-1-0.21-1.5-0.31c-0.11-0.02-0.23-0.03-0.34-0.03
			c-0.63,0.02-1.26-0.13-1.86-0.11c-0.57,0.02-0.98-0.35-1.52-0.35c-0.53,0-1.05-0.13-1.59-0.19c-0.13-0.02-0.27-0.02-0.4,0.02
			c-0.59,0.17-1.17,0.35-1.63,0.48c-0.32-0.18-0.55-0.32-0.78-0.44c-0.2-0.11-0.4-0.2-0.68-0.34c-0.19,0.15-0.51,0.25-0.87,0.3
			c-0.28,0.04-0.48-0.07-0.61-0.2c-0.22-0.22-0.41-0.26-0.63-0.07c-0.18,0.15-0.3,0.18-0.48-0.02c-0.08-0.08-0.27-0.09-0.41-0.08
			c-0.2,0.02-0.4,0.09-0.57,0.12c-0.2-0.22-0.36-0.39-0.26-0.68c0.06-0.17,0-0.38,0.01-0.57c0-0.13-0.02-0.31,0.05-0.39
			c0.35-0.39,0.29-0.9,0.45-1.35c0.07-0.21-0.02-0.48-0.01-0.72c0.01-0.18,0.06-0.35,0.14-0.53c0.24,0.34,0.13,0.69,0.05,1.1
			c0.16,0.05,0.31,0.1,0.53,0.17c-0.05-0.61-0.04-1.11,0.33-1.59c0.2,0.1,0.39,0.19,0.63,0.32c-0.33,0.46-0.08,0.76,0.2,1.05
			c-0.08,0.6,0.61,0.45,0.75,0.85c0.19-0.13,0.33-0.26,0.5-0.34c0.28-0.13,0.59-0.21,0.42-0.65c-0.01-0.03,0.11-0.13,0.2-0.22
			c-0.12-0.1-0.21-0.18-0.34-0.29c0.28-0.52-0.12-0.98-0.18-1.49c-0.04-0.3-0.1-0.6,0.06-1c0.15,0.51,0.45,0.89,0.22,1.45
			c0.29,0.02,0.54,0.03,0.79,0.05c0.23,0.31-0.07,0.78,0.34,1.11c0.1-0.22,0.24-0.4,0.26-0.6c0.06-0.58,0.35-1.08,0.52-1.63
			c0.09-0.28,0.04-0.49-0.11-0.7c-0.34-0.48-0.73-0.93-1.28-1.16c-1.13-0.47-1.7-1.44-2.24-2.45c-0.25-0.47-0.48-0.95-0.41-1.52
			c0.11-0.94,0.15-1.88,0.29-2.81c0.07-0.46,0.16-0.93,0.57-1.29c0.24-0.21,0.34-0.58,0.56-0.99c0.15-0.01,0.43-0.06,0.71-0.06
			c0.27,0,0.44-0.09,0.52-0.35c0.11-0.4,0.38-0.51,0.79-0.49c1.17,0.04,2.32-0.03,3.48-0.23c0.88-0.15,1.79-0.15,2.69-0.23
			c0.88-0.08,1.74-0.22,2.62-0.28c1.14-0.08,2.27-0.32,3.42-0.33c0.76-0.01,1.52-0.2,2.27-0.28c0.49-0.05,0.98-0.06,1.47-0.1
			c0.28-0.02,0.57-0.04,0.86-0.06c0.22-0.02,0.37-0.11,0.29-0.38c-0.05-0.14-0.08-0.29-0.11-0.41c-1.07-0.17-2.11-0.4-3.15-0.48
			c-0.53-0.04-0.98-0.16-1.42-0.4c-0.09-0.05-0.23-0.1-0.31-0.06c-0.61,0.27-1.17,0.09-1.74-0.14c-0.27-0.11-0.58-0.13-0.87-0.17
			c-1.99-0.28-3.9-0.9-5.82-1.47c-0.93-0.27-1.81-0.62-2.63-1.11c-0.36-0.22-0.68-0.49-1.02-0.74c-0.11-0.08-0.2-0.19-0.31-0.24
			c-0.7-0.33-1.15-0.93-1.6-1.52c-0.04-0.06-0.04-0.18-0.09-0.2c-0.55-0.23-0.59-0.82-0.86-1.25c-0.12-0.2-0.12-0.47-0.18-0.71
			c-0.03-0.13-0.04-0.28-0.11-0.38c-0.51-0.74-0.42-1.57-0.35-2.39c0-0.05,0.04-0.12,0.03-0.17c-0.17-0.61-0.06-1.18,0.24-1.73
			c0.03-0.05,0.03-0.12,0.01-0.17c-0.26-0.57,0-1.19-0.19-1.75c-0.08-0.23,0.29-0.41,0.04-0.68c-0.16-0.18-0.22-0.45-0.37-0.77
			c0,0,0.04-0.1,0.09-0.22c-0.27-0.25-0.56-0.51-0.41-0.97c-0.31-0.07-0.53-0.21-0.46-0.6c0.01-0.06-0.04-0.15-0.09-0.2
			c-0.21-0.2-0.18-0.44-0.13-0.69c0.04-0.25,0.04-0.46-0.21-0.7c-0.25-0.24-0.43-0.59-0.32-1.04c0.12-0.53,0.05-1.09-0.09-1.64
			c-0.09-0.36-0.3-0.77,0.06-1.13c-0.08-0.28,0.1-0.61-0.16-0.86c-0.07-0.07-0.07-0.2-0.11-0.3c-0.03-0.08-0.06-0.2-0.13-0.23
			c-0.47-0.25-0.78-0.64-1.07-1.18c0.07-0.29,0.16-0.69,0.26-1.13c0.31-0.07,0.53-0.28,0.49-0.67c-0.01-0.06,0-0.12,0.02-0.17
			c0.22-0.46,0.64-0.77,0.9-1.22c0.26-0.44,0.79-0.54,1.3-0.61c0.24-0.03,0.47-0.2,0.69-0.33c0.08-0.04,0.14-0.13,0.19-0.21
			c0.31-0.56,0.8-0.54,1.36-0.54c0.49,0,1.01-0.16,1.37-0.58c0.1-0.12,0.18-0.25,0.28-0.37c0.32-0.34,0.67-0.54,1.17-0.54
			c0.29,0,0.58-0.24,0.86-0.39c0.78-0.4,1.55-0.83,2.34-1.21c0.7-0.34,1.42-0.65,2.14-0.96c0.58-0.25,1.16-0.5,1.74-0.73
			c0.52-0.21,1.03-0.42,1.54-0.62c-0.38-0.02-0.75-0.04-1.13-0.06c-0.04,0-0.07,0-0.1,0.01c-0.38,0.11-0.74,0.19-1.15,0.13
			c-0.69-0.1-1.41-0.03-2.11-0.08c-0.6-0.04-1.18-0.06-1.78,0.09c-0.37,0.1-0.75,0.14-1.13,0.13c-0.79-0.02-1.58-0.09-2.36-0.14
			c-0.04,0-0.1-0.01-0.14,0.02c-0.34,0.28-0.72,0.05-1.03,0c-0.37-0.07-0.63,0-0.92,0.21c-0.06,0.05-0.22,0.06-0.24,0.02
			c-0.12-0.21-0.26-0.13-0.43-0.11c-0.48,0.05-0.97,0.06-1.45,0.08c-0.02,0-0.06-0.01-0.06-0.02c-0.09-0.25-0.22-0.08-0.33-0.04
			c-0.1,0.03-0.22,0.1-0.3,0.06c-0.41-0.21-0.81-0.14-1.22-0.08c-0.12,0.02-0.28-0.02-0.35,0.06c-0.22,0.28-0.42,0.17-0.65,0.06
			c-0.23-0.1-0.48-0.17-0.72-0.17c-0.42,0.01-0.91,0.26-1.25,0.09c-0.5-0.25-0.95-0.07-1.41-0.08c-0.91-0.02-1.81,0.01-2.72,0.01
			c-0.23,0-0.46-0.04-0.68-0.01c-0.75,0.11-1.5,0.01-2.25,0c-0.23,0-0.46,0.1-0.69,0.16c-0.15,0.04-0.31,0.1-0.46,0.09
			c-0.59-0.03-1.18-0.08-1.77-0.13c-0.06,0-0.11-0.02-0.17-0.02c-0.42-0.01-0.84-0.03-1.27-0.04c0,0.04-0.01,0.07-0.02,0.11
			c0.1,0.07,0.19,0.13,0.28,0.2c0.43,0.35,0.45,0.42,0.27,1c-0.07,0.24,0.07,0.38,0.22,0.48c0.14,0.09,0.32,0.12,0.51,0.2
			c0.06,0.36-0.04,0.78,0.26,1.08c0.04,0.04,0.03,0.17,0.06,0.18c0.39,0.13,0.45,0.49,0.48,0.78c0.03,0.32,0.18,0.49,0.4,0.64
			c0.27,0.2,0.35,0.42,0.32,0.77c-0.01,0.25,0.2,0.53,0.35,0.78c0.09,0.16,0.24,0.29,0.38,0.41c0.28,0.25,0.55,0.56,0.87,0.72
			c1.16,0.58,2.35,1.1,3.52,1.66c0.31,0.15,0.58,0.37,0.87,0.55c0.19,0.12,0.37,0.28,0.57,0.37c0.55,0.25,0.96,0.67,1.44,1.03
			c0.69,0.52,1.04,1.31,1.62,1.9c0.07,0.07,0.08,0.21,0.1,0.32c0.13,0.92,0.08,1.84-0.18,2.73c-0.04,0.14-0.19,0.29-0.33,0.35
			c-0.26,0.11-0.45,0.26-0.61,0.49c-0.34,0.48-0.9,0.68-1.35,1.03c-0.1,0.08-0.25,0.09-0.38,0.1c-0.6,0.07-0.81,0.43-0.57,1
			c0.05,0.1,0.05,0.24,0.12,0.32c0.11,0.12,0.25,0.28,0.39,0.28c0.4,0.01,0.81-0.04,1.21-0.08c0.11-0.01,0.22-0.07,0.3-0.15
			c0.63-0.56,1.36-0.49,2.1-0.34c0.24,0.05,0.48,0.13,0.73,0.17c0.91,0.14,1.6,0.71,2.29,1.24c0.34,0.26,0.57,0.66,0.43,1.16
			c-0.11,0.43-0.08,0.89-0.42,1.22c0.38,1-0.14,1.93-1.16,2.12c-0.41,0.07-0.79,0.12-1.01,0.61c-0.1,0.24-0.52,0.36-0.81,0.49
			c-0.45,0.19-0.5,0.28-0.38,0.78c0.05,0.22,0.05,0.45,0.06,0.68c0.04,0.63,0.04,1.28,0.15,1.9c0.08,0.5,0.31,0.98,0.47,1.47
			c0.24,0.75,0.52,1.49,0.52,2.29c0,0.11,0.06,0.22,0.1,0.33c0.03,0.11,0.11,0.22,0.11,0.32c0.01,0.7,0,1.41,0,2.12
			c0,0.61,0.03,1.22-0.01,1.82c-0.04,0.6-0.22,1.17-0.56,1.68c-0.11,0.16-0.22,0.32-0.33,0.47c-0.22,0.3-0.48,0.5-0.9,0.49
			c-0.02,0.39-0.28,0.54-0.61,0.7c-0.98,0.5-1.97,0.29-2.97,0.14c-1.06-0.16-2.03-0.53-2.93-1.1c-0.32-0.2-0.6-0.47-0.9-0.71
			c-0.38-0.31-0.77-0.54-1.3-0.48c-0.41,0.05-0.84,0.02-1.25-0.03c-0.57-0.07-1.08,0.06-1.61,0.25c-0.48,0.17-1.01,0.22-1.51,0.27
			c-0.52,0.05-1.05,0.12-1.56-0.09c-0.64,0.22-1.28-0.19-1.92,0.01c-0.08,0.03-0.2,0.01-0.28-0.03c-0.58-0.28-1.16-0.31-1.77-0.07
			c-0.12,0.05-0.27,0.06-0.4,0.05c-0.57-0.02-1.14-0.01-1.71,0.09c-0.14,0.02-0.33-0.07-0.46-0.16c-0.22-0.15-0.43-0.2-0.7-0.16
			c-0.3,0.05-0.61,0.06-0.91,0.07c-0.89,0.05-1.79,0.08-2.68,0.13c-0.11,0-0.24,0.02-0.33,0.07c-0.98,0.62-2.1,0.96-3.09,1.59
			c-0.49,0.31-1.04,0.54-1.54,0.87c-0.38,0.25-0.63,0.58-0.83,0.98c0,0.09-0.04,0.18-0.14,0.3c-0.02,0.02-0.03,0.05-0.04,0.07
			c-0.01,0.01-0.01,0.02-0.02,0.04c-0.05,0.12-0.05,0.29-0.07,0.43c-0.01,0.09,0.03,0.19,0.02,0.27c-0.05,0.42-0.1,0.84-0.15,1.25
			c0.42,0.39,0.9,0.71,1.4,1.01c1.46,0.88,3.02,1.48,4.64,1.98c1.52,0.47,3.06,0.66,4.63,0.77c0.83,0.05,1.66,0.22,2.48,0.17
			c0.52-0.03,1.02-0.08,1.52,0.05c0.02,0,0.05,0.01,0.05,0c0.3-0.3,0.68-0.14,1.02-0.16c0.8-0.06,1.59-0.13,2.38-0.2
			c0.72-0.07,1.44-0.2,2.17-0.2c1.41,0.01,2.78-0.25,4.17-0.44c0.81-0.11,1.63-0.11,2.46,0.04c0.81,0.15,1.64,0.14,2.45,0.25
			c0.8,0.1,1.53,0.39,1.94,1.15c0.3,0.55,0.55,1.13,0.81,1.71c0.25,0.54,0.1,1.09-0.08,1.6c-0.09,0.25-0.1,0.52,0.06,0.65
			c0.4,0.36,0.36,0.84,0.36,1.27c0,0.77-0.31,1.39-1.02,1.83c-0.41,0.25-0.72,0.67-1.08,1.02c-0.08,0.08-0.17,0.15-0.26,0.21
			c-0.13,0.09-0.3,0.13-0.39,0.24c-0.28,0.36-0.69,0.46-1.08,0.61c-0.39,0.15-0.75,0.37-1.15,0.5c-0.62,0.2-1.24,0.31-1.91,0.25
			c-0.57-0.05-1.14,0.04-1.72,0.04c-0.38,0-0.76-0.05-1.15-0.08c-0.21-0.02-0.42-0.07-0.62-0.07c-0.5,0-0.99,0.03-1.48,0.05
			c-0.03,0.09-0.08,0.16-0.06,0.19c0.25,0.5,0.23,1.03,0.23,1.56c0,0.3-0.1,0.6-0.13,0.9c-0.02,0.23-0.02,0.46,0.01,0.69
			c0.04,0.35,0.22,0.49,0.55,0.4c1.57-0.38,3.17-0.49,4.78-0.38c0.06,0,0.14,0.03,0.17,0c0.33-0.33,0.69-0.09,1.03-0.04
			c0.55,0.09,1.08,0.23,1.63,0.33c0.31,0.06,0.64,0.05,0.96,0.11c0.95,0.17,1.76,0.64,2.42,1.34c0.83,0.87,1.06,1.92,0.75,3.08
			c-0.06,0.24-0.12,0.49-0.19,0.73c-0.05,0.18-0.14,0.31-0.34,0.42c-0.36,0.2-0.69,0.48-0.67,0.97c0.01,0.34-0.19,0.53-0.45,0.74
			c-0.45,0.36-1.01,0.42-1.48,0.7c-0.21,0.12-0.35-0.09-0.5-0.1c-0.39-0.02-0.78,0.04-1.19,0.06c-0.1-0.1-0.02-0.4-0.33-0.32
			c-0.36,0.09-0.71,0.12-1.05,0.36c-0.79,0.56-1.65,1.01-2.48,1.51c-0.06,0.04-0.17,0.06-0.19,0.12c-0.15,0.35-0.46,0.47-0.78,0.57
			c-0.04,0.01-0.06,0.09-0.12,0.18c0.18,0,0.33,0,0.51,0c-0.04,0.08-0.05,0.15-0.08,0.17c-0.38,0.22-0.73,0.46-1.14,0.62
			c-0.3,0.12-0.45,0.08-0.62-0.14c-0.13,0.1-0.26,0.2-0.39,0.3c-0.13,0.11-0.23,0.29-0.37,0.33c-0.22,0.06-0.29,0.19-0.38,0.37
			c-0.08,0.17-0.27,0.3-0.44,0.39c-0.28,0.16-0.38,0.35-0.38,0.69c0,0.45-0.12,0.91-0.17,1.36c-0.02,0.18,0.02,0.37,0.03,0.56
			c0.01,0.17,0.08,0.35,0.04,0.51c-0.19,0.77,0.05,1.52,0.07,2.28c0.01,0.43,0.26,0.75,0.6,0.97c0.22,0.15,0.18,0.3,0.08,0.53
			c0.29,0.15,0.58,0.29,0.86,0.44c0.07,0.04,0.16,0.05,0.2,0.11c0.41,0.58,0.94,0.39,1.45,0.23c0.89-0.29,1.76-0.63,2.7-0.97
			c0.02-0.1,0.04-0.27,0.06-0.45c0.04-0.02,0.1-0.05,0.15-0.05c1.07-0.03,2.13,0.15,3.18,0.31c0.75,0.11,1.41,0.55,1.93,1.09
			c0.59,0.62,1.13,1.31,1.47,2.13c0.27,0.67-0.01,1.89-0.65,2.2c-0.49,0.23-0.81,0.6-1.2,0.9c-0.33,0.25-0.8,0.32-1.27,0.5
			c-0.08,0.28-0.16,0.65-0.28,1.01c-0.18,0.53-0.26,0.52-0.82,0.55c-0.31,0.01-0.66,0.1-0.9,0.38c-0.33,0.39-0.65,0.81-1.03,1.15
			c-0.22,0.19-0.44,0.41-0.8,0.43c-0.26,0.02-0.51,0.28-0.75,0.44c-0.12,0.08-0.22,0.28-0.33,0.27c-0.48-0.02-0.85,0.29-1.28,0.41
			c-0.07,0.02-0.16,0.12-0.2,0.1c-0.55-0.28-0.82,0.38-1.34,0.32c0.04,0.89,0.09,1.73,0.13,2.64c0.75,0.06,1.49,0.12,2.22,0.19
			c0.93,0.09,1.86,0.2,2.8,0.3c0.33,0.04,0.52-0.09,0.59-0.48c0.07-0.39,0.11-0.8,0.13-1.2c0.03-0.57,0.24-1.13,0.06-1.71
			c-0.02-0.06,0.09-0.17,0.21-0.37c0.27,0.76-0.09,1.53,0.49,2.2c0.14-1.04-0.41-1.98,0.05-2.96c0.13,0.25,0.26,0.49,0.38,0.74
			c0.09,0.18,0.2,0.32,0.45,0.11c-0.02,0.22-0.05,0.37-0.04,0.51c0.01,0.11,0.07,0.3,0.12,0.3c0.53,0.02,0.41,0.48,0.45,0.75
			c0.11,0.65,0.43,1,1.09,1.15c0.35,0.08,0.69,0.34,0.96,0.59c0.69,0.63,1.38,1.25,1.98,2c0.8,1,1.34,2.15,1.88,3.29
			c0.26,0.54,0.39,1.2,0.37,1.79c-0.02,0.51-0.2,1.07-0.83,1.33c-0.55,0.23-1.05,0.57-1.65,0.63c-0.66,0.06-1.3,0.23-1.98,0.08
			c-0.63-0.14-1.28-0.18-1.92-0.27c-0.15-0.02-0.3-0.06-0.43-0.13c-0.27-0.14-0.58-0.25-0.79-0.45c-0.52-0.5-1.21-0.6-1.81-0.92
			c-0.61-0.32-1.21-0.66-1.82-0.98c-0.8-0.43-1.67-0.67-2.54-0.91c-0.46-0.13-0.55-0.02-0.55,0.49c-0.01,0.67-0.14,1.36-0.04,2.01
			c0.11,0.76-0.15,1.46-0.1,2.21c0.03,0.42-0.08,0.9-0.27,1.28c-0.21,0.4-0.21,0.81-0.18,1.18c0.06,0.66-0.13,1.28-0.28,1.88
			c-0.13,0.53-0.41,1.03-0.68,1.52c0.04,0.08,0.07,0.17,0.12,0.28c0.25-0.04,0.54-0.13,0.83-0.13c0.31,0,0.62,0.08,0.93,0.11
			c0.11,0.01,0.26,0.01,0.33-0.06c0.26-0.27,0.47-0.09,0.73,0c0.19,0.06,0.42,0,0.64-0.02c0.13-0.01,0.31-0.12,0.38-0.06
			c0.32,0.29,0.6,0.06,0.83-0.1c0.26-0.2,0.46-0.11,0.71-0.03c0.38,0.11,0.75,0.5,1.17,0.1c0.05-0.05,0.19,0.03,0.29,0.05
			c0.07,0.02,0.15,0.06,0.22,0.07c0.14,0.02,0.27,0.01,0.4,0.04c0.33,0.06,0.66,0.19,0.96-0.09c0.38-0.37,0.69-0.4,1.13-0.13
			c0.14,0.09,0.32,0.13,0.48,0.14c0.52,0.04,1.03,0.06,1.55,0.09c0.19,0.01,0.41,0.1,0.57,0.02c0.46-0.22,0.92-0.1,1.36,0
			c0.5,0.1,0.89-0.03,1.28-0.35c0.37-0.3,0.76-0.55,1.24-0.28c0.18,0.1,0.38,0.13,0.56,0.19c0.28,0.09,0.55,0.18,0.83,0.27
			c0.13,0.04,0.26,0.08,0.43,0.13c0.33-0.59,0.42-0.88,1.05-0.28c0.09,0.09,0.16,0.19,0.26,0.25c0.09,0.06,0.2,0.1,0.3,0.1
			c0.4-0.02,0.81-0.36,1.21,0.02c0.04,0.04,0.14,0,0.21,0c0.65,0.03,1.29,0.07,1.94,0.09c0.34,0.01,0.68,0.01,1.02,0
			c-0.22-0.09-0.45-0.18-0.68-0.24C114.58,139.5,114.13,138.79,113.4,138.51z M132.67,112.6c-0.04,0.27-0.05,0.41-0.08,0.55
			c-0.04,0.19-0.11,0.33-0.37,0.3c-0.16-0.02-0.34,0.11-0.62,0.2C131.72,112.97,132.27,112.97,132.67,112.6z M99.66,119.97
			c0.04-0.31,0.08-0.63,0.13-1.03C99.92,119.62,99.92,119.63,99.66,119.97z"/>
		<path class="st0" d="M140.99,99.14c-0.45-0.07-0.81,0.12-1.18,0.32c0.34,0.32,0.79,0.39,1.2,0.12c0.22-0.14,0.45-0.23,0.69-0.3
			c0-0.06,0.01-0.13,0.01-0.2C141.5,99.16,141.26,99.18,140.99,99.14z"/>
		<path class="st0" d="M73.95,50.11c0.62-0.46,1.38-0.65,2-1.09c0.29-0.21,0.63-0.32,0.94-0.46c0.65-0.32,1.23-0.81,1.83-1.24
			c0.27-0.19,0.52-0.41,0.88-0.19c0.28-0.42,0.59-0.74,1.08-0.84c0.03-0.01,0.08-0.02,0.11-0.05c1.12-1.14,2.53-1.89,3.81-2.8
			c0.69-0.5,1.4-0.97,2.1-1.46c0.16-0.12,0.28-0.3,0.47-0.5c-0.31-0.11-0.56-0.19-0.8-0.27c0-0.04,0-0.08,0.01-0.12
			c0.27-0.1,0.67,0.04,0.77-0.42c-0.46,0.01-0.89-0.14-1.37-0.07c-0.5,0.06-0.9,0.33-1.34,0.51c-0.02-0.03-0.04-0.07-0.06-0.1
			c0.09-0.1,0.17-0.21,0.27-0.34c-0.26-0.23-0.56-0.38-0.72-0.68c-0.07-0.14-0.22-0.15-0.4-0.11c-0.31,0.06-0.63,0.08-0.95,0.06
			c-0.23-0.02-0.55,0.01-0.53-0.4c0-0.06-0.16-0.17-0.25-0.18c-0.29-0.03-0.58-0.04-0.77,0.23c-0.32-0.13-0.75-0.14-0.57-0.77
			c-0.19,0.08-0.34,0.09-0.4,0.18c-0.31,0.4-0.3,0.41-0.62,0.18c-0.61,0.07-1.17,0.15-1.73,0.21c-0.09,0.01-0.19-0.03-0.27-0.08
			c-0.37-0.27-0.78-0.24-1.19-0.13c-0.05,0.01-0.13,0.06-0.16,0.04c-0.52-0.38-1.07,0.22-1.6-0.04c-0.05-0.02-0.17,0.1-0.28,0.17
			c0-0.1,0-0.17,0-0.32c-0.17,0-0.34-0.04-0.49,0.01c-0.55,0.2-1.1,0.41-1.64,0.64c-0.17,0.3-0.3,0.61,0.02,1.01
			c0.02,0.02,0,0.08,0,0.12c0.04,0.41-0.2,0.81-0.05,1.24c0.02,0.07-0.05,0.17-0.06,0.26c-0.02,0.08-0.06,0.19-0.03,0.25
			c0.15,0.3,0.07,0.56-0.03,0.84c-0.03,0.1,0,0.32,0.06,0.36c0.24,0.16,0.24,0.33,0.11,0.59c-0.07,0.15-0.07,0.34-0.11,0.51
			c-0.1,0.45-0.09,0.48,0.27,0.54c-0.08,0.2-0.13,0.41-0.24,0.55c-0.19,0.25,0.03,0.43,0.03,0.65c0,0.69,0.01,1.38,0.01,2.07
			c0,0.51-0.06,1.03,0,1.53c0.04,0.34,0.17,0.65-0.15,0.87c0.05,0.09,0.09,0.15,0.12,0.21c0.19-0.11,0.37-0.23,0.55-0.35
			C73.02,50.61,73.53,50.42,73.95,50.11z"/>
		<path class="st0" d="M74.63,66.88c0.74-0.39,1.49-0.79,2.24-1.17c1.01-0.5,2.04-0.96,3.04-1.48c1.26-0.65,2.48-1.37,3.75-2
			c0.77-0.38,1.59-0.66,2.39-0.99c0.42-0.18,0.84-0.36,1.25-0.57c0.95-0.48,1.89-0.98,2.84-1.47c0.84-0.43,1.72-0.78,2.59-1.14
			c0.57-0.24,1.16-0.52,1.54-1.07c0.04-0.06,0.09-0.12,0.13-0.19c0.02-0.03,0.01-0.07,0.02-0.18c-0.57-0.08-1.03,0.09-1.36,0.45
			c-0.31-0.04-0.57-0.14-0.78-0.08c-0.21,0.07-0.38,0.3-0.59,0.48c-0.08-0.01-0.21-0.03-0.33-0.04c-0.15,0.22-0.28,0.42-0.42,0.64
			c-0.3-0.05-0.58-0.17-0.85,0.04c-0.11,0.08-0.3,0.1-0.44,0.07c-0.13-0.02-0.26-0.13-0.39-0.2c-0.2,0.31-0.43,0.67-0.72,1.12
			c-0.33-0.09-0.76-0.22-1.23-0.34c-0.15,0.07-0.34,0.14-0.52,0.24c-0.09,0.05-0.16,0.15-0.23,0.23c-0.04,0.05-0.06,0.18-0.09,0.18
			c-0.37,0.01-0.59,0.13-0.61,0.56c-0.01,0.12-0.31,0.27-0.5,0.33c-0.15,0.05-0.34,0.01-0.61,0.01c-0.24,0.25-0.6,0.4-1.08,0.39
			c-0.27-0.01-0.55,0.2-0.84,0.32c0.04,0.07,0.07,0.13,0.09,0.19c-0.67,0.32-0.67,0.32-1.22,0.16c-0.21,0.39-0.6,0.33-0.97,0.39
			c-0.33,0.05-0.6,0.41-1.01,0.17c-0.03,0.14-0.07,0.23-0.07,0.31c0.02,0.24-0.12,0.34-0.32,0.4c-0.23,0.07-0.46,0.15-0.7,0.23
			c-0.13,0.04-0.26,0.14-0.38,0.12c-0.74-0.09-1.31,0.34-1.92,0.64c-0.15,0.07-0.32,0.15-0.48,0.16c-0.55,0.06-1.1,0.11-1.65,0.14
			c-0.33,0.02-0.65,0.03-0.91-0.25c-0.07-0.08-0.25-0.1-0.38-0.1c-0.28,0-0.54-0.06-0.78-0.15c-0.01,0.35-0.08,0.71-0.11,1.07
			c-0.01,0.14-0.06,0.3-0.01,0.41c0.2,0.44,0.24,0.85,0.02,1.13c0,0.45,0.08,0.81-0.01,1.1c-0.15,0.46-0.18,0.89-0.1,1.3
			c0.33-0.23,0.66-0.44,1-0.66C73.47,67.47,74.06,67.18,74.63,66.88z M91.33,57.73c0.14,0.06,0.28,0.11,0.42,0.17
			c-0.02,0.05-0.05,0.16-0.06,0.16c-0.14-0.03-0.29-0.07-0.43-0.11C91.28,57.88,91.3,57.81,91.33,57.73z"/>
		<path class="st0" d="M141.19,139.62c-0.06-0.32-0.17-0.57-0.51-0.57c-0.05,0-0.12-0.1-0.13-0.17c0-0.02-0.01-0.03-0.01-0.05
			c-0.38,0.19-0.74,0.41-1.13,0.6c-0.31,0.15-0.64,0.26-0.96,0.38c-0.23,0.08-0.49,0.12-0.69,0.25c-0.15,0.1-0.3,0.19-0.45,0.27
			c0.11,0.01,0.22,0,0.34-0.01c0.55-0.07,1.13-0.14,1.66,0c0.54,0.15,1.06,0.06,1.58,0.12c0.09,0.01,0.19,0,0.27-0.04
			c0.12-0.06,0.28-0.13,0.31-0.25c0.03-0.09-0.1-0.25-0.17-0.37C141.28,139.74,141.2,139.69,141.19,139.62z"/>
		<path class="st0" d="M79.82,28.49c0.75,0.23,1.47,0.55,2.21,0.82c0.26,0.1,0.53,0.17,0.93,0.3c-0.13-0.3-0.18-0.48-0.28-0.63
			c-0.39-0.63-0.69-1.3-0.99-1.97c-0.13,0.02-0.26,0.08-0.39,0.2c-0.06,0.06-0.22,0.01-0.33-0.01c-0.44-0.08-0.87-0.17-1.31-0.23
			c-0.09-0.01-0.22,0.04-0.28,0.11c-0.24,0.32-0.45,0.19-0.7,0.02c-0.11-0.08-0.27-0.12-0.4-0.12c-0.19-0.01-0.4,0.08-0.58,0.04
			c-0.51-0.11-1.02-0.31-1.53,0.01c-0.06,0.04-0.15-0.03-0.24-0.04c-0.26-0.03-0.52-0.06-0.79-0.06c-0.23,0-0.47,0-0.7,0
			c0.01,0,0.01,0,0.02,0.01C76.25,27.44,78.04,27.95,79.82,28.49z"/>
		<path class="st0" d="M140.11,35.2c-0.32,0.41-0.58,0.86-0.87,1.29c-0.05,0.08-0.14,0.13-0.21,0.18c-0.09,0.07-0.22,0.1-0.28,0.19
			c-0.45,0.65-1.05,1.23-1.02,2.12c0,0.15-0.05,0.31-0.13,0.44c-0.15,0.25-0.28,0.46-0.01,0.72c0.03,0.03-0.01,0.21-0.06,0.24
			c-0.4,0.22-0.28,0.52-0.11,0.85c-0.21,0.19-0.42,0.37-0.66,0.58c0.14,0.16,0.32,0.29,0.41,0.47c0.15,0.3-0.27,0.32-0.34,0.61
			c0.14-0.01,0.25-0.03,0.36-0.02c0.11,0.01,0.22,0.06,0.36,0.1c-0.35,0.39-0.66,0.73-0.97,1.08c0.12,0.09,0.21,0.15,0.3,0.22
			c-0.05,0.11-0.09,0.21-0.15,0.36c0.18,0.02,0.34,0.04,0.57,0.06c-0.04,0.26-0.06,0.5-0.09,0.73c0.41,0.41,0.96,0.3,1.44,0.27
			c0.68-0.04,1.33,0.01,1.98,0.17c0.27,0.07,0.57,0.04,0.85,0.1c0,0,0.01,0,0.01,0c0.03-0.15,0.07-0.29,0.07-0.44
			c0.01-0.63-0.02-1.25-0.03-1.88c-0.01-0.21-0.06-0.43-0.04-0.64c0.04-0.36-0.1-0.54-0.38-0.66c-0.18-0.08-0.33-0.23-0.43-0.3
			c0.14-0.3,0.23-0.51,0.34-0.7c0.08-0.14,0.17-0.33,0.3-0.37c0.34-0.12,0.27-0.37,0.16-0.59c-0.11-0.19-0.11-0.33,0-0.5
			c0.04-0.06,0.07-0.15,0.07-0.23c-0.01-0.4-0.08-0.8-0.11-1.19c-0.06-0.62-0.28-1.22,0.05-1.79c-0.14-0.11-0.27-0.21-0.39-0.3
			c0.15-0.2,0.34-0.34,0.36-0.51c0.04-0.39,0.02-0.8-0.03-1.2c-0.02-0.19-0.06-0.38-0.1-0.57C140.68,34.21,140.45,34.77,140.11,35.2
			z"/>
		<path class="st0" d="M141.1,57.64c-0.16,0.21-0.13,0.57-0.21,0.93c-0.32,0.17-0.73,0.39-1.19,0.63c0.25,0.09,0.46,0.17,0.71,0.27
			c-0.22,0.36-0.4,0.7-0.63,1c-0.1,0.14-0.32,0.19-0.49,0.26c-0.56,0.23-1.13,0.47-1.7,0.67c-0.66,0.23-0.98,0.88-1.56,1.21
			c-0.02,0.35-0.03,0.69-0.05,1.09c0.14-0.02,0.28-0.05,0.41-0.07c0.07-0.01,0.17-0.07,0.2-0.04c0.42,0.39,0.93,0.13,1.38,0.14
			c0.44,0,0.89-0.06,1.34-0.13c0.68-0.11,1.4,0.01,2.1,0.01c0.06,0,0.11,0,0.16,0.01c0.01-0.03,0.01-0.05,0.02-0.07
			c0.02-0.05-0.01-0.14-0.04-0.19c-0.15-0.25,0.08-0.64-0.22-0.84c0,0,0.04-0.11,0.06-0.17c0.07-0.27,0.21-0.56,0.18-0.82
			c-0.06-0.48,0-0.99-0.2-1.45c-0.02-0.06,0.01-0.21,0.06-0.25c0.26-0.2,0.19-0.47,0.12-0.72c-0.16-0.56-0.28-1.08-0.02-1.67
			c0.04-0.1,0.05-0.21,0.05-0.33C141.4,57.26,141.25,57.46,141.1,57.64z"/>
		<path class="st0" d="M141.26,73.31c-0.3,0.31-0.61,0.62-0.91,0.94c-0.47,0.49-0.92,1.01-1.42,1.46c-0.48,0.42-0.93,0.86-1.31,1.36
			c-0.19,0.25-0.38,0.5-0.65,0.69c0.28-0.45,0.56-0.89,0.83-1.35c0.28-0.46,0.56-0.91,0.82-1.38c0.43-0.77,0.86-1.53,1.26-2.32
			c0.14-0.28,0.19-0.62,0.23-0.94c0.02-0.18-0.55-0.56-0.79-0.49c-0.37,0.1-0.67-0.05-0.99-0.17c-0.55-0.19-1.08-0.43-1.68-0.42
			c-0.41,0.01-0.82-0.16-1.22,0.02c-0.26,0.11-0.45,0.22-0.47,0.56c-0.03,0.37-0.15,0.73-0.26,1.09c-0.09,0.3-0.12,0.59-0.07,0.9
			c0.01,0.04,0.02,0.09,0.01,0.11c-0.33,0.57,0.09,1.28-0.34,1.84c-0.05,0.06,0,0.19,0.01,0.28c0.01,0.32,0.06,0.62-0.26,0.87
			c-0.17,0.14-0.24,0.43-0.29,0.67c-0.15,0.71-0.26,1.43-0.4,2.14c-0.18,0.95-0.47,1.86-1.04,2.65c-0.13,0.18-0.19,0.42-0.3,0.62
			c-0.34,0.58-0.83,1-1.42,1.31c-0.45,0.24-0.48,0.71-0.09,1.03c0.31,0.25,0.57,0.56,0.84,0.86c0.08,0.09,0.15,0.24,0.16,0.36
			c0.03,0.5,0.37,0.8,0.64,1.17c0.43,0.58,0.96,1.03,1.49,1.5c0.32,0.29,0.2,0.71,0.27,1.07c0.01,0.07-0.01,0.15-0.03,0.28
			c0.67,0.23,1.33,0.48,1.99,0.69c0.49,0.16,1.03,0.22,1.47,0.45c0.82,0.43,1.76,0.52,2.6,0.96c0.57,0.3,1.13,0.61,1.69,0.93
			c-0.05-0.29-0.08-0.58,0.03-0.88c0.03-0.08-0.01-0.21-0.05-0.31c-0.14-0.39-0.29-0.77-0.44-1.16c0.3-0.23,0.5-0.51,0.48-0.92
			c-0.02-0.54-0.06-1.09-0.13-1.63c-0.03-0.26-0.12-0.48,0.11-0.68c0.07-0.06,0.11-0.21,0.11-0.32c-0.01-0.46-0.07-0.92-0.07-1.38
			c-0.01-0.76,0.02-1.52,0.04-2.29c0.01-0.24,0.05-0.49,0.06-0.73c0-0.12-0.08-0.25-0.08-0.38c0-0.57-0.02-1.14,0.04-1.71
			c0.06-0.67-0.36-1.34,0.01-2.01c0.02-0.04,0.01-0.11,0-0.16c-0.15-0.9,0.13-1.82-0.09-2.72c0-0.01,0.01-0.03,0.01-0.04
			c-0.06-0.39,0.06-0.82-0.28-1.16c-0.21-0.2-0.04-0.46,0.1-0.67c0.07-0.1,0.15-0.21,0.17-0.33c0.03-0.21,0.02-0.42,0.01-0.63
			C141.48,73.03,141.37,73.18,141.26,73.31z M131.21,85.29c-0.05-0.12-0.13-0.23-0.15-0.36c-0.01-0.07,0.09-0.23,0.13-0.22
			c0.14,0.02,0.27,0.09,0.49,0.17C131.47,85.05,131.37,85.14,131.21,85.29z M132.03,85.04c-0.06,0.09-0.19,0.11-0.32,0.18
			c0-0.23,0-0.39,0-0.62c0.09,0.03,0.22,0.05,0.29,0.13C132.05,84.79,132.07,84.98,132.03,85.04z"/>
		<path class="st0" d="M132.59,113.15c0.03-0.14,0.04-0.28,0.08-0.55c-0.4,0.36-0.96,0.37-1.07,1.05c0.27-0.09,0.45-0.22,0.62-0.2
			C132.48,113.48,132.55,113.35,132.59,113.15z"/>
		<path class="st0" d="M127.7,69.85c-0.93-0.23-1.79,0.25-2.7,0.3c-0.33,0.02-0.66,0.14-1.01,0.12c-0.18-0.01-0.37,0.04-0.55,0.09
			c-0.37,0.1-0.73,0.22-1.09,0.31c-0.2,0.05-0.4,0.06-0.66,0.1c-0.02-0.07-0.06-0.18-0.11-0.31c-0.35,0.14-0.67,0.28-1.01,0.39
			c-0.38,0.12-0.75,0.24-1.08,0.5c-0.13,0.1-0.36,0.14-0.52,0.1c-0.24-0.07-0.36,0.05-0.49,0.19c-0.15,0.15-0.29,0.3-0.43,0.46
			c-0.07,0.08-0.16,0.18-0.17,0.27c-0.02,0.56-0.37,0.86-0.82,1.08c-0.14,0.07-0.32,0.1-0.41,0.2c-0.33,0.42-0.63,0.86-0.94,1.3
			c-0.09,0.12-0.17,0.27-0.29,0.33c-0.67,0.37-0.85,1.1-1.24,1.67c-0.19,0.28-0.17,0.71-0.34,1.01c-0.18,0.31-0.24,0.59-0.12,0.93
			c0.05,0.16,0.04,0.33,0.05,0.5c0.38,0.25,0.67,0.55,0.67,1.09c0.24-0.16,0.39-0.1,0.56,0.13c0.3,0.39,1.12,0.58,1.6,0.49
			c0.32-0.06,0.64-0.07,0.96-0.11c0.69-0.07,1.39,0.08,2.09-0.13c1.11-0.33,2.29-0.39,3.4-0.77c0.57-0.19,1.14-0.37,1.7-0.59
			c0.8-0.32,1.6-0.65,2.42-0.92c0.97-0.32,1.56-1.09,2.17-1.81c0.23-0.27,0.32-0.62,0.19-1.03c-0.12-0.39-0.16-0.85,0.3-1.11
			c-0.03-0.09-0.05-0.14-0.07-0.19c-0.29-0.53-0.36-1.56-0.18-2.15c0.05-0.16,0.05-0.35,0.01-0.51c-0.13-0.58-0.29-1.16-0.44-1.75
			C128.64,70.06,128.21,69.65,127.7,69.85z"/>
		<path class="st0" d="M127.72,102.82c-0.26,0.03-0.53,0-0.76,0.1c-0.65,0.26-1.3,0.54-1.89,0.89c-0.54,0.32-1,0.77-1.68,0.79
			c-0.04,0-0.07,0.03-0.1,0.05c-1.37,0.76-2.79,1.41-4.28,1.91c-0.46,0.16-0.91,0.37-1.33,0.53c-0.01,0.44-0.05,0.83,0.41,0.92
			c0.3,0.06,0.61,0.1,0.91,0.05c0.99-0.18,1.98-0.4,2.97-0.6c0.24-0.05,0.49-0.07,0.73-0.14c1.06-0.31,2.12-0.64,3.18-0.94
			c0.42-0.12,0.87-0.14,1.28-0.28c1.3-0.44,2.58-0.9,3.87-1.37c0.35-0.13,0.41-0.28,0.21-0.61c-0.34-0.57-0.68-1.15-1.02-1.72
			c-0.09-0.15-0.2-0.28-0.28-0.39c-0.46,0.04-0.86,0.08-1.36,0.12C128.47,102.55,128.17,102.77,127.72,102.82z"/>
		<path class="st0" d="M117.97,105.87c0.81-0.28,1.62-0.56,2.42-0.88c1.17-0.48,2.29-1.06,3.35-1.77c1.05-0.7,2.11-1.39,3.14-2.13
			c0.6-0.43,1.27-0.79,1.75-1.57c-0.17-0.02-0.35-0.09-0.39-0.04c-0.33,0.37-0.74,0.29-1.15,0.26c-0.52-0.04-1.03-0.11-1.54-0.12
			c-0.54-0.01-1.09,0.04-1.64,0.06c-0.32,0.01-0.64-0.01-0.95,0.05c-0.84,0.16-1.68,0.34-2.51,0.54c-0.51,0.12-0.94,0.38-1.04,0.97
			c-0.06,0.4-0.1,0.8-0.18,1.19c-0.1,0.5-0.17,1.02-0.71,1.27c-0.1,0.05-0.17,0.15-0.25,0.23c-0.3,0.34-0.6,0.67-0.94,1.05
			c0.04,0.24,0.08,0.56,0.13,0.9C117.64,105.88,117.82,105.92,117.97,105.87z"/>
		<path class="st0" d="M126.86,45.68c-0.49,0.28-0.95,0.61-1.43,0.9c-0.27,0.17-0.55,0.32-0.83,0.46c-0.27,0.13-0.56,0.23-0.85,0.35
			c-0.1,0.04-0.24,0.07-0.29,0.15c-0.32,0.51-0.83,0.62-1.37,0.65c-0.02,0-0.04,0.06-0.07,0.12c0.11,0.07,0.21,0.17,0.33,0.2
			c0.59,0.16,1.18,0.3,1.77,0.44c0.2,0.05,0.42,0.07,0.6,0.16c0.27,0.13,0.5,0.32,0.8,0.07c0.06-0.05,0.21,0.02,0.33,0.03
			c0.15,0.01,0.3,0.04,0.44,0.03c0.25-0.03,0.49-0.1,0.73-0.12c0.49-0.05,0.98-0.08,1.47-0.11c0.17-0.46,0.05-3.12-0.16-3.69
			C127.82,45.34,127.31,45.42,126.86,45.68z"/>
		<path class="st0" d="M119.74,43.93c0.21-0.09,0.4-0.17,0.58-0.27c1.18-0.64,2.35-1.27,3.44-2.07c0.44-0.32,0.91-0.6,1.37-0.91
			c0.17-0.12,0.32-0.27,0.48-0.39c0.77-0.59,1.56-1.16,2.32-1.78c0.62-0.5,0.66-0.98,0.24-1.64c-0.27,0.07-0.55,0.09-0.76,0.22
			c-0.22,0.14-0.37,0.39-0.57,0.58c-0.07,0.07-0.16,0.1-0.24,0.15c-0.18,0.11-0.4,0.19-0.52,0.35c-0.48,0.64-1.36,0.83-1.72,1.6
			c-0.04,0.08-0.2,0.11-0.31,0.14c-0.14,0.04-0.3,0.05-0.48,0.08c-0.11,0.32-0.23,0.65-0.32,0.9c-0.43,0.21-0.85,0.37-1.23,0.6
			c-0.37,0.22-0.69,0.52-1.03,0.78c-0.09,0.07-0.22,0.14-0.24,0.23c-0.13,0.58-0.6,0.74-1.09,0.9
			C119.7,43.56,119.72,43.72,119.74,43.93z"/>
		<path class="st0" d="M133.84,70.64c-0.51,0.28-0.66,0.4-0.66,0.69c0,0.36-0.14,0.63-0.4,0.92c0.34,0.06,0.61,0.11,0.9,0.16
			C134.1,71.86,134.11,71.29,133.84,70.64z"/>
		<path class="st0" d="M127.66,112.98c-0.12,0.17-0.07,0.28,0.09,0.35c0.1,0.05,0.22,0.06,0.35,0.09c0.14-0.27,0.25-0.48,0.38-0.75
			c-0.21-0.07-0.41-0.13-0.58-0.19C127.8,112.69,127.75,112.85,127.66,112.98z"/>
		<path class="st0" d="M133.14,110.63c-0.22,0.13-0.39,0.23-0.6,0.36c0.11,0.18,0.18,0.3,0.26,0.44
			C133.28,111.3,133.18,110.99,133.14,110.63z"/>
		<path class="st0" d="M132.21,110.72c-0.39,0.09-0.4,0.33-0.48,0.56C132.05,111.24,132.05,111.24,132.21,110.72z"/>
		<path class="st0" d="M129.57,112.43c0.03,0.05,0.07,0.1,0.1,0.15c0.19-0.13,0.38-0.27,0.57-0.4
			C129.87,112.02,129.72,112.23,129.57,112.43z"/>
		<path class="st0" d="M119.34,43.97c-0.16,0.08-0.32,0.17-0.57,0.29C119.16,44.41,119.26,44.19,119.34,43.97z"/>
		<path class="st0" d="M123.43,116.36c0,0.03,0.04,0.09,0.05,0.09c0.05,0,0.09-0.03,0.14-0.04c-0.02-0.04-0.04-0.09-0.12-0.27
			C123.46,116.26,123.44,116.31,123.43,116.36z"/>
		<path class="st0" d="M124.75,113.18c-0.01,0.02,0.02,0.06,0.04,0.09c0.06-0.03,0.12-0.06,0.17-0.1c0.01-0.01-0.03-0.08-0.07-0.17
			C124.83,113.09,124.78,113.13,124.75,113.18z"/>
		<path class="st0" d="M72.22,69.96c0.01-0.02,0.02-0.03,0.02-0.04C72.23,69.93,72.22,69.94,72.22,69.96z"/>
		<path class="st0" d="M99.66,119.97c0.26-0.35,0.26-0.35,0.13-1.03C99.73,119.35,99.69,119.66,99.66,119.97z"/>
		<path class="st0" d="M85.42,127.55c-0.29,0.02-0.57,0.04-0.86,0.09c-0.46,0.08-0.93,0.06-1.4,0.21c-0.52,0.17-1.08,0.27-1.63,0.34
			c-0.52,0.07-1.01,0.19-1.46,0.47c-0.14,0.09-0.3,0.16-0.47,0.2c-0.89,0.21-1.72,0.57-2.54,0.95c-0.55,0.26-1.1,0.54-1.61,0.87
			c-0.54,0.35-1.04,0.76-1.55,1.14c-0.17,0.13-0.27,0.27-0.24,0.53c0.05,0.44-0.11,0.89,0.03,1.33c0.03,0.1,0,0.24-0.02,0.35
			c-0.07,0.3-0.14,0.6-0.21,0.9c-0.12,0.51,0.12,0.78,0.62,0.74c0.83-0.06,1.65-0.3,2.49-0.18c0.07,0.01,0.15-0.03,0.22-0.04
			c0.63-0.13,1.26-0.28,1.9-0.38c0.82-0.14,1.66-0.26,2.48-0.37c0.28-0.04,0.57-0.04,0.85-0.06c0.12-0.01,0.24-0.01,0.36-0.04
			c0.22-0.05,0.43-0.13,0.64-0.18c0.48-0.11,0.97-0.2,1.45-0.33c0.53-0.15,0.65-0.68,0.85-1.09c0.53-1.09,0.5-2.28,0.58-3.41
			c-0.03-0.58-0.05-1.13-0.08-1.68C85.81,127.65,85.67,127.53,85.42,127.55z"/>
		<path class="st0" d="M91.98,47.91c-0.03-0.19-0.15-0.37-0.23-0.56c-0.37,0.14-0.68,0.49-0.99,0.09c0.23-0.18,0.45-0.35,0.68-0.52
			c-0.34-0.53-0.43-1.16-0.99-1.4c-0.31,0.11-0.59,0.26-0.88,0.3c-0.37,0.04-0.52,0.36-0.78,0.53c-0.03,0.02-0.07,0.02-0.11,0.04
			c-0.42,0.21-0.8,0.12-1.24-0.2c-0.11,0.3-0.24,0.53-0.29,0.78c-0.1,0.43-0.16,0.57-0.55,0.55c-0.26-0.01-0.43,0.09-0.63,0.21
			c-0.39,0.23-0.78,0.45-1.23,0.72c0.07,0.04,0.17,0.06,0.21,0.12c0.07,0.09,0.1,0.22,0.15,0.33c-0.29,0.12-0.05,0.42-0.18,0.59
			c-0.04,0-0.07,0-0.08-0.01c-0.05-0.07-0.11-0.15-0.15-0.23c-0.14-0.32-0.22-0.36-0.52-0.21c-0.44,0.22-0.92,0.32-1.35,0.59
			c-0.33,0.21-0.74,0.37-1.12,0.53c-0.35,0.15-0.52,0.42-0.52,0.75c0.18-0.02,0.35-0.08,0.51-0.05c0.18,0.03,0.48,0.1,0.5,0.2
			c0.1,0.47,0.43,0.44,0.77,0.44c0.03,0,0.07,0.08,0.12,0.15c-0.43,0.3-0.86,0.58-1.3,0.87c0.54,0.15,1.09,0.3,1.65,0.46
			c0.12-0.3,0.35-0.46,0.71-0.43c0.11,0.01,0.23-0.04,0.34-0.07c0.69-0.13,1.39-0.25,2.09-0.39C87,52,87.43,51.9,87.85,51.79
			c0.57-0.15,1.13-0.33,1.7-0.5c0.72-0.22,1.49-0.27,2.19-0.57c0.19-0.08,0.4-0.09,0.61-0.13c0.31-0.06,0.65-0.09,0.77-0.47
			c0.06-0.19-0.23-0.86-0.36-1.04C92.48,48.71,92.07,48.42,91.98,47.91z M82.78,50.44c0.26-0.26,0.26-0.26,0.57,0
			C83.17,50.44,82.99,50.44,82.78,50.44z M84.44,51c-0.35,0.06-0.7,0.15-0.78,0.6c-0.26-0.26-0.32-0.57-0.21-0.81
			c0.1-0.22,0.17-0.44,0.27-0.72c0.14,0.11,0.26,0.21,0.37,0.29c0.24-0.14,0.48-0.33,0.75-0.42c0.15-0.05,0.35,0.09,0.51,0.13
			C85.23,50.85,85.13,50.89,84.44,51z M86.55,49.68c-0.24,0.05-0.53,0.21-0.79-0.13c0.15-0.14,0.41-0.2,0.29-0.52
			c-0.05-0.13,0.31-0.25,0.51-0.15c0.09,0.05,0.17,0.13,0.28,0.23C86.75,49.29,86.66,49.47,86.55,49.68z M89.16,48.2
			c-0.28,0.12-0.56,0.22-0.84,0.34c-0.22,0.1-0.43,0.15-0.61-0.09c0.08-0.29,0.31-0.34,0.54-0.32c0.37,0.03,0.66-0.07,0.94-0.32
			c0.18-0.16,0.2-0.14,0.69,0.06C89.56,48.02,89.36,48.12,89.16,48.2z"/>
		<path class="st0" d="M82.54,108c-0.05,0.19-0.08,0.31-0.12,0.46c0.19-0.02,0.33-0.04,0.46-0.05c-0.39,0.29-0.73,0.59-0.95,1.02
			c-0.04,0.07-0.15,0.11-0.22,0.17c-0.24,0.24-0.49,0.47-0.72,0.72c-0.2,0.22-0.37,0.45-0.72,0.32c-0.11-0.04-0.25,0.05-0.38,0.08
			c0,0.04,0.01,0.08,0.01,0.12c0.12,0.03,0.24,0.07,0.37,0.1c-0.02,0.13-0.04,0.25-0.06,0.39c-0.42,0.04-0.8,0.13-1.02,0.52
			c1.07,0.99,4.22,1.6,5.45,1.07c0.01-1.3-0.4-4.65-0.66-5.13C83.52,107.86,83.1,108.36,82.54,108z"/>
		<path class="st0" d="M81.54,51.66c-0.07-0.14-0.14-0.29-0.22-0.48c-0.45,0.17-0.87,0.33-1.31,0.5c-0.08,0.19-0.17,0.43-0.27,0.68
			c0.47,0.2,0.6-0.2,0.82-0.44c0.26-0.01,0.53-0.05,0.79-0.05c0.25,0,0.51,0.04,0.77,0.07C82.04,51.52,81.72,51.77,81.54,51.66z"/>
		<path class="st0" d="M93.31,100.86c-0.21-0.03-0.39-0.05-0.57-0.08C92.89,100.95,93.06,101.23,93.31,100.86z"/>
		<path class="st0" d="M94.32,100.87c-0.21-0.23-0.35-0.06-0.5,0.05C93.98,100.94,94.15,101.1,94.32,100.87z"/>
		<path class="st0" d="M93.82,100.92c-0.01,0-0.01,0-0.02,0l0.01,0.01C93.81,100.92,93.81,100.92,93.82,100.92z"/>
		<path class="st0" d="M82.16,100.05c-0.03,0-0.05,0-0.07,0c0,0.11,0,0.22,0,0.33c0.02,0,0.05,0,0.07,0
			C82.16,100.27,82.16,100.16,82.16,100.05z"/>
		<path class="st0" d="M84.84,49.95c-0.27,0.09-0.51,0.28-0.75,0.42c-0.11-0.08-0.23-0.18-0.37-0.29c-0.1,0.27-0.17,0.5-0.27,0.72
			c-0.11,0.25-0.05,0.56,0.21,0.81c0.07-0.45,0.42-0.54,0.78-0.6c0.69-0.11,0.8-0.15,0.91-0.92C85.19,50.03,84.99,49.9,84.84,49.95z
			"/>
		<path class="st0" d="M89.18,47.82c-0.27,0.25-0.57,0.35-0.94,0.32c-0.23-0.02-0.46,0.03-0.54,0.32c0.18,0.24,0.39,0.19,0.61,0.09
			c0.28-0.12,0.56-0.22,0.84-0.34c0.21-0.09,0.41-0.18,0.72-0.33C89.38,47.68,89.36,47.66,89.18,47.82z"/>
		<path class="st0" d="M86.05,49.03c0.12,0.32-0.14,0.38-0.29,0.52c0.26,0.35,0.55,0.19,0.79,0.13c0.11-0.21,0.2-0.4,0.29-0.58
			c-0.12-0.09-0.19-0.18-0.28-0.23C86.36,48.78,86,48.89,86.05,49.03z"/>
		<path class="st0" d="M82.78,50.44c0.21,0,0.39,0,0.57,0C83.04,50.18,83.04,50.18,82.78,50.44z"/>
	</g>
	<g>
		<path class="st1" d="M118.96,187.42c-0.11,0.03-0.23,0.06-0.35,0.1c-0.11,0.03-0.23,0.06-0.34,0.09c-0.2,0.04-0.38,0.11-0.56,0.18
			c-0.39,0.16-0.78,0.31-1.18,0.46c-0.15,0.06-0.3,0.08-0.46,0.08c-0.34,0-0.68,0.01-1.03,0c-0.19,0-0.37,0.02-0.55,0.04
			c-0.21,0.03-0.42,0.06-0.62,0.1c-0.18,0.03-0.36,0.08-0.52,0.19c-0.13,0.09-0.27,0.17-0.4,0.25c-0.07,0.04-0.15,0.06-0.23,0.04
			c-0.18-0.03-0.36-0.05-0.55-0.08c-0.34-0.06-0.68-0.07-1.01,0.02c-0.39,0.1-0.78,0.15-1.18,0.13c-0.18-0.01-0.37,0.01-0.55,0
			c-0.11,0-0.22,0-0.32-0.02c-0.21-0.05-0.42-0.05-0.63-0.05c-0.63,0-1.27,0-1.9-0.02c-0.34-0.01-0.68-0.04-1.03-0.02
			c-0.29,0.03-0.58,0.01-0.87,0c-0.29-0.02-0.58-0.05-0.86-0.08c-0.46-0.05-0.9-0.15-1.35-0.26c-0.28-0.07-0.57-0.12-0.85-0.16
			c-0.52-0.06-1.03-0.18-1.55-0.29c-0.13-0.03-0.26-0.04-0.39-0.04c-0.23,0.01-0.45,0.01-0.67,0.05c-0.23,0.03-0.45,0-0.66-0.08
			c-0.19-0.07-0.37-0.13-0.56-0.19c-0.18-0.05-0.35-0.12-0.49-0.24c-0.32-0.25-0.68-0.39-1.06-0.5c-0.52-0.15-1.03-0.32-1.54-0.5
			c-0.26-0.09-0.53-0.15-0.8-0.2c-0.22-0.04-0.44-0.07-0.66-0.1c-0.15-0.02-0.28-0.07-0.38-0.18c-0.19-0.22-0.43-0.33-0.7-0.43
			c-1.19-0.46-2.33-1.04-3.43-1.71c-0.27-0.16-0.54-0.32-0.85-0.41c-0.11-0.03-0.19-0.08-0.25-0.17c-0.11-0.17-0.27-0.28-0.44-0.4
			c-0.26-0.17-0.52-0.36-0.78-0.54c-0.13-0.09-0.27-0.17-0.43-0.19c-0.17-0.03-0.33-0.1-0.46-0.21c-0.01-0.01-0.03-0.02-0.03-0.02
			c-0.71-0.5-0.71-0.5-1.33-1.12c-0.19-0.19-0.39-0.36-0.6-0.51c-0.43-0.32-0.86-0.65-1.29-0.98c-0.56-0.42-1.38-1.14-1.89-1.63
			c-0.56-0.54-1.07-1.13-1.54-1.76c-0.26-0.33-0.5-0.68-0.75-1.02c-0.11-0.16-0.24-0.31-0.4-0.44c-0.15-0.13-0.29-0.27-0.44-0.4
			c-0.1-0.09-0.18-0.19-0.24-0.31c-0.33-0.65-0.71-1.27-1.11-1.88c-0.05-0.06-0.09-0.13-0.13-0.2c-0.31-0.52-0.63-1.04-1-1.52
			c-0.13-0.17-0.23-0.36-0.3-0.56c-0.06-0.15-0.13-0.29-0.2-0.43c-0.14-0.28-0.3-0.56-0.46-0.83c-0.04-0.08-0.08-0.17-0.14-0.24
			c-0.21-0.27-0.37-0.58-0.53-0.89c-0.15-0.3-0.35-0.59-0.55-0.86c-0.15-0.19-0.31-0.37-0.42-0.58c-0.11-0.19-0.16-0.42-0.24-0.63
			c-0.03-0.06-0.05-0.13-0.07-0.19c-0.07-0.19-0.12-0.38-0.12-0.58c0-0.11-0.02-0.21-0.03-0.32c-0.02-0.17-0.05-0.34-0.12-0.5
			c-0.05-0.11-0.09-0.22-0.13-0.33c-0.08-0.24-0.2-0.46-0.33-0.67c-0.21-0.38-0.41-0.77-0.61-1.16c-0.04-0.09-0.07-0.2-0.1-0.3
			c-0.04-0.15-0.07-0.31-0.12-0.46c-0.1-0.32-0.15-0.64-0.16-0.98c0-0.25-0.06-0.5-0.13-0.74c-0.24-0.77-0.45-1.55-0.61-2.34
			c-0.04-0.17-0.07-0.34-0.11-0.51c0-0.01,0-0.03-0.01-0.04c-0.01-0.2-0.13-0.38-0.15-0.58c-0.01-0.18,0-0.37-0.03-0.56
			c-0.03-0.24-0.07-0.47-0.1-0.71c-0.07-0.53-0.14-1.05-0.2-1.58c-0.02-0.19-0.05-0.37-0.11-0.55c-0.02-0.09-0.03-0.18-0.01-0.27
			c0.02-0.13,0.02-0.26,0.02-0.39c0-0.13-0.01-0.26-0.02-0.4c-0.04-0.43-0.05-0.87-0.05-1.31c-0.01-0.67,0.04-1.33,0.13-1.98
			c0.05-0.33,0.09-0.66,0.15-0.98c0.01-0.11,0.02-0.21,0-0.32c-0.08-0.31-0.05-0.62-0.01-0.94c0.08-0.51,0.2-1.01,0.37-1.51
			c0.08-0.24,0.11-0.48,0.09-0.74c-0.02-0.27-0.01-0.53-0.02-0.8c0.08-0.25,0.23-0.47,0.35-0.71c0.23-0.44,0.25-0.45,0.25-0.94
			c0.01-0.44,0.07-0.87,0.21-1.29c0.13-0.39,0.19-0.8,0.2-1.21c0-0.05,0.01-0.1,0.01-0.16c0.01-0.26,0.09-0.49,0.24-0.7
			c0.16-0.24,0.33-0.48,0.46-0.74c0.13-0.26,0.21-0.54,0.32-0.81c0.04-0.11,0.08-0.23,0.13-0.33c0.17-0.36,0.3-0.73,0.43-1.11
			c0.37-1.04,0.78-2.05,1.29-3.03c0.07-0.14,0.13-0.29,0.21-0.43c0.13-0.24,0.24-0.5,0.28-0.78c0.01-0.08,0.05-0.15,0.09-0.21
			c0.01-0.01,0.02-0.02,0.03-0.03c0.29-0.35,0.49-0.75,0.7-1.15c0.55-1.05,1.15-2.05,1.87-2.99c0.32-0.42,0.65-0.84,0.98-1.25
			c0.99-1.21,2.06-2.34,3.17-3.44c0.12-0.12,0.23-0.25,0.36-0.38c0.05-0.05,0.11-0.11,0.17-0.15c0.08-0.07,0.17-0.13,0.25-0.2
			c1.63-1.49,3.38-2.83,5.2-4.07c0.91-0.62,1.84-1.19,2.79-1.73c0.98-0.55,2-1.01,3.06-1.37c0.15-0.05,0.3-0.1,0.44-0.19
			c0.09-0.06,0.19-0.08,0.3-0.09c0.17-0.02,0.33-0.07,0.5-0.12c0.33-0.1,0.67-0.21,1.01-0.32c0.18-0.05,0.34-0.12,0.51-0.22
			c0.31-0.17,0.62-0.34,0.93-0.52c0.12-0.06,0.23-0.11,0.36-0.14c0.67-0.17,1.33-0.34,1.99-0.51c0.05-0.01,0.1-0.03,0.15-0.03
			c0.3-0.03,0.6-0.07,0.9-0.08c0.16-0.01,0.31-0.05,0.46-0.11c0.22-0.09,0.44-0.19,0.65-0.29c0.16-0.08,0.32-0.11,0.5-0.09
			c0.16,0.01,0.31,0.02,0.47,0.04c0.04,0,0.08,0.01,0.12,0.01c0.24,0.04,0.47,0.02,0.69-0.1c0.14-0.08,0.29-0.12,0.43-0.2
			c0.27-0.15,0.57-0.2,0.87-0.22c0.2-0.02,0.4-0.02,0.59-0.04c0.13-0.01,0.26,0.01,0.39,0.05c0.19,0.05,0.39,0.1,0.57,0.16
			c0.25,0.07,0.49,0.06,0.73-0.02c0.21-0.08,0.43-0.13,0.64-0.2c0.1-0.04,0.2-0.05,0.31-0.05c1,0,2,0,3,0
			c0.24,0,0.47,0.03,0.69,0.13c0.17,0.08,0.35,0.09,0.54,0.09c0.37-0.01,0.74,0,1.11,0.01c0.27,0,0.55,0.03,0.83,0.05
			c0.54,0.04,1.07,0.13,1.6,0.21c0.05,0,0.11,0.03,0.15,0.02c0.2-0.06,0.36,0.02,0.53,0.09c0.11,0.04,0.23,0.07,0.34,0.09
			c0.44,0.09,0.88,0.17,1.31,0.27c1.44,0.33,2.85,0.75,4.23,1.26c0.51,0.19,1.02,0.35,1.53,0.53c0.17,0.06,0.35,0.13,0.51,0.22
			c0.46,0.26,0.93,0.49,1.41,0.72c1.08,0.51,2.14,1.08,3.19,1.66c2.17,1.2,4.16,2.65,6,4.31c0.53,0.48,1.05,0.97,1.56,1.46
			c0.79,0.76,1.53,1.57,2.22,2.43c1.08,1.33,2.11,2.71,3.06,4.15c0.84,1.28,1.6,2.62,2.29,3.99c0.1,0.19,0.19,0.38,0.27,0.57
			c0.08,0.17,0.18,0.32,0.3,0.47c0.13,0.15,0.27,0.29,0.37,0.47c0,0.05,0.02,0.11,0.01,0.16c-0.04,0.38,0.06,0.73,0.19,1.08
			c0.12,0.32,0.23,0.65,0.34,0.98c0.15,0.48,0.38,0.93,0.62,1.37c0.13,0.23,0.27,0.45,0.42,0.68c0.08,0.13,0.14,0.28,0.19,0.43
			c0.19,0.59,0.35,1.19,0.48,1.8c0.07,0.34,0.17,0.67,0.26,1c0.03,0.1,0.05,0.21,0.08,0.31c0.04,0.1,0.04,0.21,0.02,0.31
			c-0.02,0.19-0.04,0.37-0.06,0.55c-0.01,0.13,0,0.26,0.03,0.39c0.09,0.41,0.16,0.83,0.23,1.25c0.02,0.13,0.06,0.26,0.1,0.38
			c0.07,0.22,0.15,0.43,0.22,0.64c0.04,0.1,0.05,0.21,0.06,0.31c0,0.27,0.01,0.53,0.01,0.8c0,0.15,0.02,0.29,0.05,0.43
			c0.06,0.25,0.1,0.5,0.16,0.74c0.04,0.17,0.04,0.34-0.04,0.5c0,0.01-0.01,0.03-0.01,0.04c-0.14,0.31-0.2,0.63-0.17,0.97
			c0.01,0.18,0.01,0.37,0.01,0.56c0,0.22,0.02,0.45,0.06,0.67c0.05,0.29,0.07,0.58,0.11,0.87c0.03,0.2,0.01,0.4-0.02,0.6
			c-0.04,0.18-0.08,0.36-0.1,0.54c-0.02,0.15-0.03,0.29-0.04,0.44c-0.03,0.63-0.03,1.27-0.08,1.9c-0.05,0.74-0.12,1.48-0.27,2.21
			c-0.06,0.32-0.12,0.65-0.18,0.98c-0.03,0.18-0.07,0.36-0.05,0.55c0.01,0.12-0.02,0.24-0.08,0.35c-0.1,0.19-0.16,0.39-0.21,0.59
			c-0.39,1.51-0.83,3.01-1.38,4.48c-0.03,0.09-0.07,0.18-0.07,0.26c-0.01,0.18-0.07,0.34-0.13,0.5c-0.1,0.27-0.18,0.56-0.3,0.82
			c-0.12,0.25-0.29,0.48-0.43,0.72c-0.08,0.14-0.16,0.28-0.23,0.42c-0.26,0.54-0.52,1.08-0.78,1.61c-0.14,0.28-0.26,0.57-0.35,0.88
			c-0.08,0.24-0.17,0.47-0.26,0.71c-0.16,0.17-0.32,0.36-0.48,0.52c-0.16,0.16-0.29,0.34-0.41,0.54c-0.23,0.36-0.46,0.71-0.69,1.07
			c-0.12,0.17-0.23,0.36-0.31,0.55c-0.07,0.17-0.17,0.33-0.31,0.45c-0.17,0.15-0.3,0.33-0.44,0.52c-0.27,0.38-0.55,0.75-0.82,1.12
			c-0.02,0.03-0.05,0.06-0.08,0.09c-0.38,0.43-0.76,0.85-1.13,1.27c-0.18,0.2-0.33,0.42-0.47,0.64c-0.11,0.21-0.24,0.41-0.35,0.62
			c-0.1,0.19-0.24,0.35-0.37,0.52c-0.37,0.48-0.79,0.92-1.23,1.34c-0.12,0.11-0.23,0.21-0.37,0.3c-0.54,0.33-1.04,0.71-1.48,1.17
			c-0.13,0.13-0.29,0.23-0.46,0.31c-0.19,0.1-0.37,0.21-0.52,0.36c-0.04,0.03-0.08,0.07-0.12,0.1c-0.47,0.42-0.43,0.31-0.77,0.84
			c-0.06,0.1-0.15,0.19-0.27,0.22c-0.01,0-0.02,0.01-0.04,0.01c-0.25,0.12-0.52,0.21-0.75,0.35c-0.24,0.14-0.46,0.31-0.69,0.46
			c-0.38,0.24-0.73,0.52-1.06,0.82c-0.19,0.17-0.39,0.32-0.61,0.43c-0.05,0.02-0.1,0.05-0.14,0.08c-0.37,0.23-0.77,0.41-1.18,0.55
			c-0.36,0.12-0.68,0.3-0.97,0.53c-0.17,0.13-0.34,0.26-0.52,0.36c-0.19,0.11-0.4,0.1-0.61,0.16c-0.1,0.03-0.2,0.06-0.3,0.1
			c-0.24,0.1-0.48,0.21-0.72,0.32c-0.08,0.03-0.15,0.06-0.22,0.11c-0.22,0.14-0.45,0.26-0.73,0.29c-0.05,0.01-0.24-0.01-0.4-0.05
			c-0.09-0.02-0.17-0.05-0.21-0.09l0.01-0.32c0.1-0.24,0.21-0.48,0.33-0.72c0.14-0.3,0.3-0.59,0.46-0.85
			c0.29-0.45,0.6-0.82,0.93-0.98c0.11-0.05,0.22-0.26,0.3-0.35c0.1-0.12,0.06-0.02,0.2-0.05c0.21-0.04,0.4-0.63,0.58-0.73
			c0.41-0.23,0.84-0.44,1.22-0.73c0.03-0.02,0.06-0.05,0.1-0.06c0.17-0.07,0.32-0.17,0.48-0.27c1.16-0.74,2.27-1.54,3.36-2.37
			c0.29-0.22,0.58-0.45,0.85-0.7c0.1-0.09,0.21-0.16,0.31-0.25c0.13-0.1,0.27-0.21,0.4-0.32c1.03-0.86,1.98-1.79,2.9-2.76
			c0.04-0.05,0.1-0.09,0.12-0.19c-0.1-0.09-0.1-0.24-0.12-0.38c-0.01-0.04-0.01-0.08-0.01-0.12c-0.04-0.66-0.01-1.33-0.02-1.98
			c0-0.15,0.02-0.29,0.04-0.44c0.02-0.33,0.04-0.66,0-0.99c-0.02-0.2-0.02-0.4,0-0.59c0.02-0.14,0.04-0.29,0.01-0.43
			c-0.07-0.36-0.06-0.71-0.03-1.07c0.03-0.33,0.03-0.66,0.01-0.99c-0.01-0.39-0.02-0.77-0.02-1.15c0-0.17,0-0.34,0-0.52
			c-0.02-0.48-0.03-0.95,0.02-1.43c0.01-0.12,0.01-0.24,0.01-0.36c0-0.22,0.01-0.45,0.01-0.68c0.02-0.4,0.02-0.79-0.04-1.19
			c-0.04-0.21-0.04-0.43,0-0.64c0.03-0.21,0.03-0.42,0.01-0.63c-0.02-0.16-0.01-0.32,0.01-0.48c0.04-0.36,0.03-0.71-0.01-1.07
			c-0.04-0.3-0.04-0.61-0.02-0.91c0.03-0.53,0.03-1.06,0-1.59c-0.02-0.38-0.03-0.77-0.03-1.15c0-0.48,0-0.96,0-1.43
			c0-0.18,0-0.37,0.03-0.55c0.02-0.2,0.03-0.4,0.01-0.59c-0.02-0.18-0.01-0.34,0-0.52c0.02-0.21,0.03-0.42-0.02-0.63
			c-0.05-0.21-0.05-0.42-0.01-0.63c0.04-0.21,0.04-0.42,0.02-0.63c-0.01-0.05,0-0.1,0.01-0.16c0-0.02,0.03-0.04,0.04-0.05
			c0.02-0.01,0.05-0.02,0.08-0.02c0.3-0.01,0.6-0.03,0.91-0.04c0.04,0,0.08,0,0.12,0c0.42,0.04,0.84,0.03,1.27,0.02
			c0.06,0,0.13,0.01,0.19,0.01c0.03,0,0.07,0.06,0.07,0.09c-0.01,0.11-0.01,0.21-0.01,0.32c-0.01,0.09-0.03,0.18-0.03,0.28
			c0.01,0.42,0.01,0.85,0.04,1.27c0.03,0.37,0.04,0.74,0.05,1.11c0.01,0.36,0,0.72,0,1.08c0,0.34,0.01,0.69-0.04,1.03
			c-0.03,0.19-0.03,0.37-0.02,0.56c0.02,0.33,0.02,0.66,0.05,0.99c0.02,0.34-0.01,0.69-0.02,1.03c-0.01,0.34,0.03,0.69-0.01,1.03
			c-0.01,0.09-0.01,0.18-0.01,0.28c0.08,0.89,0.05,1.78,0.05,2.66c0,0.72-0.01,1.43-0.01,2.15c0,0.05,0.01,0.1,0.01,0.16
			c0.01,0.55,0.02,1.11,0.02,1.67c0,0.32-0.03,0.63-0.04,0.95c0,0.08-0.01,0.16,0,0.24c0.05,0.36,0.04,0.71,0,1.07
			c-0.03,0.28-0.03,0.55,0.01,0.83c0.05,0.28,0.06,0.55,0.05,0.83c-0.01,0.36-0.01,0.72-0.01,1.07c0,0.05,0.01,0.1,0.02,0.16
			c0,0.01,0.02,0.02,0.03,0.02c0.02,0.01,0.06,0.02,0.07,0c0.1-0.12,0.19-0.25,0.29-0.38c1-1.38,1.9-2.83,2.69-4.35
			c0.36-0.69,0.71-1.39,1.07-2.08c0.25-0.5,0.48-1,0.64-1.54c0.08-0.25,0.19-0.5,0.33-0.72c0.24-0.36,0.36-0.76,0.49-1.17
			c0.02-0.06,0.03-0.13,0.04-0.2c0.04-0.37,0.14-0.72,0.28-1.07c0.18-0.43,0.28-0.88,0.28-1.35c0-0.28,0.02-0.55,0.08-0.82
			c0.05-0.22,0.1-0.44,0.14-0.66c0.02-0.11,0.04-0.21,0.09-0.3c0.08-0.16,0.12-0.32,0.14-0.5c0.13-0.87,0.25-1.75,0.38-2.63
			c0.04-0.26,0.05-0.53-0.02-0.79c-0.03-0.09-0.03-0.18-0.05-0.28c-0.11-0.54-0.11-0.41,0.13-0.9c0.08-0.17,0.15-0.34,0.15-0.53
			c0-0.09,0.01-0.19,0.02-0.28c0.02-0.64,0.02-1.27,0-1.91c0-0.22-0.04-0.45-0.1-0.67c-0.02-0.09-0.05-0.18-0.08-0.26
			c-0.11-0.38-0.22-0.76-0.24-1.17c-0.03-0.46-0.09-0.92-0.12-1.39c-0.02-0.28-0.05-0.55-0.1-0.83c-0.04-0.18-0.06-0.37-0.11-0.55
			c-0.04-0.18-0.06-0.37-0.04-0.55c0.02-0.17,0.01-0.35-0.02-0.52c-0.11-0.57-0.22-1.14-0.33-1.72c-0.06-0.29-0.15-0.56-0.28-0.82
			c-0.09-0.17-0.14-0.34-0.17-0.53c-0.04-0.24-0.1-0.47-0.14-0.7c-0.02-0.13-0.07-0.25-0.12-0.37c-0.1-0.22-0.2-0.43-0.31-0.65
			c-0.09-0.17-0.14-0.34-0.1-0.53c0.04-0.19,0-0.37-0.07-0.54c-0.12-0.32-0.24-0.65-0.35-0.97c-0.16-0.46-0.35-0.89-0.62-1.28
			c-0.02-0.03-0.04-0.07-0.06-0.1c-0.09-0.14-0.15-0.28-0.2-0.43c-0.08-0.25-0.16-0.51-0.24-0.76c-0.05-0.16-0.12-0.32-0.19-0.48
			c-0.21-0.41-0.43-0.82-0.65-1.23c-0.06-0.12-0.13-0.23-0.22-0.33c-0.15-0.17-0.27-0.36-0.39-0.54c-0.29-0.45-0.55-0.91-0.79-1.39
			c-0.03-0.08-0.08-0.16-0.12-0.25c-0.05-0.1-0.11-0.18-0.19-0.25c-0.18-0.16-0.34-0.32-0.53-0.48c-0.16-0.14-0.3-0.29-0.37-0.5
			c-0.01-0.02-0.03-0.05-0.05-0.06c-0.02-0.02-0.04-0.02-0.07-0.02c0,0-0.02,0.02-0.02,0.03c-0.04,0.25-0.07,0.5-0.04,0.75
			c0.03,0.45,0.04,0.9,0.04,1.35c-0.01,0.72-0.05,1.43,0,2.15c0.01,0.08,0,0.16,0,0.24c-0.01,0.58-0.02,1.17-0.02,1.75
			c0,0.17,0,0.35,0.02,0.52c0.03,0.28,0.04,0.56,0.01,0.83c-0.01,0.06-0.01,0.13-0.01,0.2c0,0.33,0,0.66,0,0.99
			c0,0.35,0.01,0.69-0.02,1.03c-0.03,0.34,0.02,0.66,0.02,0.99c0,0.07,0,0.14,0,0.2c0,0.26,0,0.53-0.01,0.8
			c-0.02,0.66,0.07,1.32,0.01,1.99c0,0.04,0,0.08,0,0.12c0.03,0.3,0.03,0.61,0.01,0.91c-0.01,0.15,0,0.29,0.01,0.44
			c0,0.14,0.01,0.29,0,0.44c-0.02,0.58,0.05,1.16-0.02,1.75c-0.01,0.08,0.01,0.16,0.01,0.24c0.01,0.5,0.03,1.01,0.02,1.51
			c-0.01,0.53-0.04,1.06-0.01,1.59c0,0.01-0.01,0.03-0.01,0.04c0,0.07-0.05,0.13-0.11,0.13c-0.19,0.01-0.37,0.02-0.55,0.02
			c-0.25,0-0.5-0.01-0.75-0.02c-0.37-0.01-0.74-0.01-1.1-0.02c-0.1,0-0.15-0.04-0.16-0.14c-0.02-0.18-0.04-0.37-0.04-0.56
			c-0.01-0.73,0-1.46,0-2.19c0-0.12,0.02-0.24,0.03-0.36c0.02-0.21,0.02-0.42,0-0.64c-0.02-0.25-0.04-0.5-0.04-0.75
			c0-0.52,0.02-1.03,0.04-1.55c0.01-0.24,0.02-0.48-0.01-0.71c-0.03-0.21-0.03-0.42-0.04-0.63c-0.03-0.78,0.03-1.56,0.04-2.35
			c0-0.4,0-0.79-0.03-1.19c-0.04-0.43-0.04-0.85,0.02-1.27c0.02-0.17,0.02-0.35,0.01-0.52c-0.04-0.53-0.01-1.06-0.04-1.59
			c-0.01-0.04,0-0.08,0-0.12c0.05-0.46,0.04-0.93,0.05-1.39c0.01-0.23,0-0.45-0.02-0.68c-0.04-0.45-0.05-0.9,0-1.35
			c0.03-0.28,0.05-0.56,0-0.83c-0.05-0.25-0.05-0.5-0.03-0.75c0.01-0.09,0.02-0.19,0.01-0.28c-0.06-0.45-0.03-0.9-0.01-1.35
			c0.01-0.24,0.02-0.48,0-0.72c-0.01-0.16-0.02-0.32,0-0.47c0.03-0.39,0.02-0.77,0.01-1.15c-0.02-0.5-0.04-0.44,0.44-0.45
			c0.04,0,0.08,0,0.12-0.01c0.08-0.01,0.12-0.07,0.08-0.13c-0.19-0.29-0.4-0.55-0.72-0.71c-0.5-0.25-0.94-0.59-1.33-0.98
			c-0.14-0.14-0.29-0.27-0.41-0.42c-0.21-0.26-0.41-0.53-0.64-0.76c-0.23-0.24-0.49-0.44-0.75-0.65c-0.58-0.48-1.17-0.94-1.87-1.25
			c-0.2-0.08-0.36-0.21-0.5-0.38c-0.19-0.25-0.45-0.44-0.71-0.62c-1.98-1.33-4.07-2.44-6.25-3.39c-0.29-0.12-0.59-0.23-0.91-0.26
			c-0.06-0.01-0.13-0.02-0.19-0.04c-0.44-0.12-0.89-0.23-1.34-0.36c-0.62-0.18-1.23-0.38-1.8-0.69c-0.23-0.13-0.49-0.2-0.75-0.24
			c-0.5-0.08-0.97-0.23-1.42-0.45c-0.05-0.02-0.1-0.04-0.15-0.06c-0.09-0.03-0.18-0.05-0.26-0.08c-0.09-0.03-0.18-0.03-0.27-0.01
			c-0.26,0.04-0.52,0.08-0.78,0.12c-0.15,0.02-0.29,0.01-0.43-0.05c-0.18-0.08-0.37-0.13-0.56-0.21c-0.29-0.13-0.6-0.19-0.92-0.2
			c-0.14-0.01-0.29-0.01-0.43-0.04c-0.17-0.03-0.34-0.02-0.51,0c-0.54,0.06-1.08,0.06-1.62,0.02c-0.32-0.02-0.63-0.06-0.92-0.2
			c-0.03-0.01-0.05-0.01-0.08-0.02c-0.12-0.06-0.25-0.07-0.39-0.07c-0.68,0.01-1.37,0.01-2.05,0.02c-0.13,0-0.26,0.02-0.39,0.04
			c-0.34,0.05-0.67,0.11-1.01,0.17c-0.24,0.03-0.47,0.07-0.71,0.09c-0.47,0.04-0.94,0.11-1.42,0.12c-0.22,0-0.45,0.03-0.67,0.05
			c-0.09,0.01-0.18,0.03-0.27,0.04c-0.61,0.12-1.21,0.25-1.82,0.36c-0.17,0.03-0.33,0.09-0.48,0.17c-0.2,0.12-0.41,0.24-0.61,0.36
			c-0.17,0.1-0.35,0.18-0.55,0.21c-0.14,0.02-0.28,0.06-0.42,0.1c-0.29,0.08-0.59,0.13-0.9,0.12c-0.02,0-0.05,0-0.08,0
			c-0.23-0.02-0.44,0.04-0.65,0.11c-0.74,0.27-1.47,0.58-2.18,0.92c-0.13,0.06-0.25,0.14-0.37,0.23c-0.18,0.13-0.36,0.26-0.54,0.4
			c-0.09,0.06-0.18,0.11-0.29,0.11c-0.23,0-0.44,0.08-0.64,0.19c-0.29,0.16-0.58,0.31-0.88,0.46c-0.79,0.42-1.58,0.84-2.36,1.28
			c-0.36,0.2-0.7,0.43-0.97,0.74c-0.01,0.01-0.02,0.02-0.03,0.03c-0.1,0.13-0.25,0.19-0.41,0.23c-0.02,0.01-0.05,0.01-0.07,0.02
			c-0.19,0.03-0.34,0.12-0.5,0.23c-0.17,0.13-0.34,0.25-0.51,0.37c-0.2,0.14-0.37,0.29-0.49,0.51c-0.06,0.11-0.13,0.2-0.23,0.28
			c-0.38,0.3-0.74,0.64-1.16,0.89c-0.16,0.1-0.3,0.22-0.43,0.35c-0.21,0.22-0.43,0.43-0.64,0.65c-0.7,0.7-1.4,1.4-2.1,2.11
			c-0.04,0.04-0.07,0.07-0.1,0.12c-0.01,0.02-0.02,0.05-0.01,0.07c0.01,0.02,0.04,0.05,0.05,0.05c0.12,0.01,0.24,0.02,0.36,0.02
			c0.26,0,0.53-0.01,0.79-0.01c0.24,0,0.25,0.01,0.32,0.26c0.04,0.17,0.09,0.33,0.13,0.5c0.06,0.24,0.12,0.49,0.22,0.72
			c0.06,0.15,0.1,0.3,0.12,0.46c0.04,0.26,0.11,0.51,0.21,0.76c0.13,0.29,0.21,0.6,0.26,0.91c0.07,0.45,0.18,0.88,0.34,1.3
			c0.21,0.56,0.36,1.13,0.46,1.72c0.07,0.43,0.18,0.85,0.32,1.27c0.07,0.21,0.14,0.43,0.2,0.64c0.12,0.44,0.25,0.87,0.4,1.29
			c0.1,0.26,0.18,0.53,0.23,0.8c0.07,0.35,0.17,0.7,0.27,1.04c0.21,0.72,0.38,1.46,0.61,2.18c0.05,0.15,0.07,0.31,0.09,0.47
			c0.02,0.24,0.08,0.47,0.15,0.7c0.05,0.14,0.1,0.27,0.11,0.42c0.04,0.37,0.14,0.73,0.26,1.08c0.06,0.19,0.11,0.38,0.16,0.57
			c0.09,0.35,0.17,0.69,0.21,1.05c0.01,0.12,0.04,0.24,0.07,0.35c0.1,0.33,0.17,0.67,0.23,1c0.03,0.17,0.08,0.34,0.12,0.5
			c0.02,0.05,0.04,0.09,0.12,0.09c0.09-0.24,0.14-0.5,0.17-0.76c0.03-0.28,0.06-0.55,0.09-0.83c0.04-0.3,0.09-0.6,0.19-0.89
			c0.06-0.17,0.11-0.35,0.12-0.54c0-0.2,0.05-0.39,0.12-0.58c0.07-0.2,0.11-0.4,0.14-0.62c0.04-0.34,0.11-0.68,0.22-1.01
			c0.1-0.33,0.19-0.66,0.28-0.99c0.08-0.31,0.15-0.61,0.27-0.91c0.04-0.1,0.07-0.2,0.07-0.3c0.01-0.31,0.11-0.6,0.22-0.88
			c0.19-0.48,0.35-0.97,0.46-1.48c0.05-0.23,0.12-0.46,0.21-0.68c0.07-0.16,0.11-0.33,0.14-0.5c0.03-0.18,0.08-0.36,0.14-0.54
			c0.17-0.56,0.34-1.11,0.5-1.67c0.05-0.18,0.1-0.36,0.14-0.54c0.12-0.6,0.28-1.18,0.48-1.76c0.02-0.05,0.04-0.1,0.06-0.15
			c0.26-0.82,0.53-1.64,0.68-2.49c0.03-0.15,0.08-0.31,0.14-0.46c0.1-0.25,0.16-0.5,0.22-0.76c0.05-0.2,0.11-0.41,0.17-0.61
			c0.03-0.1,0.09-0.16,0.2-0.16c0.17,0,0.34-0.02,0.51-0.02c0.3,0.01,0.61,0.03,0.9-0.01c0.3-0.04,0.6,0.03,0.91,0.02
			c0.48-0.01,0.98-0.01,1.46-0.01c0.01,0,0.03,0,0.04,0.01c0.04,0,0.07,0.03,0.08,0.07c0.01,0.05,0.02,0.1,0.02,0.16
			c-0.01,0.45-0.03,0.9-0.03,1.35c0,0.17,0,0.34,0,0.52c0,0.58,0,1.17-0.01,1.75c0,0.25,0,0.5,0.02,0.76
			c0.03,0.36,0.04,0.71,0.02,1.07c-0.01,0.19-0.01,0.39,0.02,0.59c0.03,0.2,0.02,0.39-0.01,0.59c-0.03,0.17-0.03,0.34-0.03,0.51
			c0,0.24,0.02,0.48,0.02,0.72c0.01,0.17,0.01,0.34-0.01,0.52c-0.03,0.48-0.04,0.95,0,1.43c0.01,0.1,0.02,0.21,0.02,0.31
			c-0.01,0.48-0.02,0.95-0.03,1.43c0,0.19-0.01,0.38,0.03,0.56c0.04,0.23,0.04,0.45,0.01,0.67c-0.05,0.53-0.06,1.06,0.01,1.59
			c0.05,0.41,0.05,0.82,0.01,1.23c-0.03,0.46-0.03,0.93-0.03,1.39c0,0.37-0.01,0.74-0.02,1.11c-0.01,0.25-0.01,0.5,0.03,0.75
			c0.02,0.11,0.02,0.21,0,0.32c-0.07,0.5-0.06,1,0.01,1.5c0.01,0.1,0.03,0.21,0.02,0.32c-0.03,0.29-0.03,0.59-0.01,0.88
			c0.01,0.08,0.01,0.16-0.01,0.24c-0.05,0.48-0.03,0.96,0,1.43c0.01,0.06,0.01,0.13,0,0.19c0,0.05-0.05,0.1-0.1,0.11
			c-0.3,0.02-0.6,0.01-0.91-0.02c-0.27-0.02-0.55-0.02-0.83,0c-0.23,0.02-0.45,0.01-0.67,0.01c-0.04,0-0.08,0-0.12-0.02
			c-0.02-0.01-0.05-0.03-0.06-0.05c-0.02-0.05-0.04-0.1-0.04-0.15c-0.06-0.36-0.05-0.72-0.01-1.07c0.04-0.42,0.05-0.85,0.03-1.27
			c-0.02-0.36-0.03-0.72-0.01-1.07c0.01-0.33,0.02-0.66,0.04-0.99c0.01-0.16,0.01-0.32,0.01-0.47c-0.02-0.42-0.03-0.85,0.03-1.27
			c0.02-0.18,0.02-0.37-0.01-0.56c-0.06-0.41-0.04-0.82-0.02-1.23c0.01-0.2,0.02-0.39,0-0.59c-0.01-0.17-0.01-0.34,0.02-0.52
			c0.03-0.21,0.04-0.42,0.02-0.63c-0.01-0.12-0.02-0.24-0.01-0.36c0.02-0.4,0.02-0.79-0.01-1.19c-0.01-0.05,0-0.11,0-0.16
			c0.01-0.63,0.02-1.27,0.03-1.91c0-0.25,0-0.5,0.05-0.75c0.02-0.1,0.02-0.21,0.02-0.32c0-0.28,0-0.56-0.01-0.84
			c-0.01-0.4-0.03-0.79-0.05-1.19c0-0.14,0.01-0.29,0.01-0.44c0.01-0.24,0.03-0.48,0.03-0.71c0.01-0.54,0.01-1.09,0.02-1.63
			c0.01-0.48-0.03-0.95-0.05-1.43c0-0.01-0.01-0.03-0.02-0.03c-0.02,0.01-0.06,0.01-0.06,0.03c-0.03,0.06-0.06,0.12-0.07,0.19
			c-0.06,0.32-0.11,0.65-0.17,0.98c-0.06,0.37-0.11,0.73-0.23,1.09c-0.11,0.35-0.2,0.71-0.27,1.08c-0.05,0.27-0.12,0.54-0.21,0.81
			c-0.04,0.13-0.07,0.26-0.08,0.39c-0.02,0.24-0.07,0.47-0.17,0.69c-0.07,0.17-0.11,0.35-0.15,0.53c-0.12,0.65-0.27,1.29-0.53,1.91
			c-0.05,0.13-0.1,0.28-0.14,0.42c-0.08,0.27-0.15,0.53-0.23,0.8c-0.04,0.13-0.07,0.26-0.09,0.39c-0.07,0.43-0.22,0.84-0.38,1.25
			c-0.15,0.38-0.27,0.77-0.36,1.18c-0.04,0.18-0.08,0.36-0.15,0.54c-0.12,0.27-0.2,0.54-0.25,0.83c-0.03,0.14-0.08,0.28-0.12,0.42
			c-0.05,0.2-0.11,0.38-0.15,0.58c-0.08,0.43-0.2,0.85-0.31,1.27c-0.17,0.6-0.33,1.2-0.49,1.8c-0.1,0.39-0.21,0.77-0.35,1.14
			c-0.05,0.16-0.1,0.33-0.14,0.5c-0.08,0.29-0.13,0.6-0.22,0.89c-0.1,0.34-0.25,0.67-0.34,1.02c-0.02,0.06-0.06,0.08-0.11,0.1
			c-0.27,0.05-0.55,0.08-0.83,0.04c-0.17-0.02-0.34-0.02-0.51,0c-0.2,0.02-0.39,0.03-0.59,0.03c-0.47-0.01-0.42,0.03-0.54-0.44
			c-0.09-0.36-0.17-0.72-0.31-1.07c-0.06-0.14-0.08-0.28-0.11-0.42c-0.04-0.17-0.05-0.34-0.13-0.5c-0.14-0.27-0.22-0.57-0.28-0.87
			c-0.02-0.08-0.03-0.16-0.06-0.23c-0.1-0.3-0.16-0.62-0.22-0.93c-0.07-0.32-0.15-0.64-0.29-0.94c-0.06-0.13-0.11-0.27-0.15-0.41
			c-0.11-0.41-0.24-0.81-0.3-1.23c-0.04-0.25-0.11-0.49-0.21-0.72c-0.06-0.16-0.11-0.32-0.15-0.49c-0.2-0.82-0.41-1.64-0.67-2.45
			c-0.03-0.08-0.05-0.15-0.06-0.23c-0.03-0.14-0.04-0.29-0.1-0.42c-0.17-0.39-0.26-0.8-0.37-1.21c-0.13-0.51-0.29-1.02-0.45-1.52
			c-0.11-0.38-0.21-0.76-0.27-1.16c-0.02-0.1-0.04-0.21-0.07-0.31c-0.14-0.43-0.26-0.86-0.37-1.3c-0.09-0.35-0.2-0.68-0.27-1.03
			c-0.15-0.66-0.32-1.31-0.52-1.96c-0.06-0.2-0.12-0.41-0.13-0.62c-0.01-0.12-0.03-0.24-0.06-0.35c-0.02-0.08-0.05-0.15-0.08-0.22
			c-0.01-0.03-0.03-0.05-0.05-0.04c-0.02,0.01-0.04,0.03-0.04,0.05c-0.01,0.49-0.01,0.98,0,1.47c0,0.17,0.01,0.35,0.03,0.52
			c0.05,0.42,0.06,0.85,0.06,1.27c0,0.61-0.02,1.22,0.05,1.83c0.02,0.14,0,0.29,0,0.44c-0.01,0.19-0.02,0.37-0.03,0.56
			c-0.02,0.4-0.01,0.79,0.03,1.19c0.02,0.18,0.02,0.37,0.02,0.55c-0.02,0.41-0.04,0.82-0.05,1.23c-0.01,0.19,0,0.37,0,0.56
			c0,0.2,0.01,0.4,0,0.59c-0.01,0.45-0.05,0.9-0.01,1.36c0.01,0.12,0,0.24,0,0.36c0,0.45,0,0.9-0.01,1.35
			c0,0.15-0.01,0.29-0.03,0.43c-0.02,0.16-0.02,0.32,0.01,0.48c0.05,0.25,0.04,0.5,0,0.75c-0.06,0.37-0.07,0.74,0,1.11
			c0.04,0.18,0.04,0.37,0.01,0.55c-0.07,0.38-0.06,0.76,0,1.15c0.02,0.12,0.03,0.24,0.03,0.36c0.01,0.44,0.01,0.87,0,1.31
			c-0.01,0.31-0.01,0.61,0.01,0.92c0.01,0.21-0.01,0.43-0.02,0.63c0,0.03-0.04,0.07-0.08,0.08c-0.03,0.02-0.07,0.02-0.11,0.02
			c-0.64,0.01-1.29,0.01-1.94-0.03c-0.1-0.01-0.2-0.02-0.31-0.04c-0.05-0.01-0.09-0.07-0.1-0.11c0-0.06-0.01-0.13-0.01-0.2
			c0-0.25,0.01-0.5,0-0.75c-0.02-0.4-0.04-0.79-0.04-1.19c0-0.1,0-0.21-0.01-0.32c-0.05-0.33-0.03-0.66-0.01-0.99
			c0.04-0.53,0.05-1.06,0.03-1.59c-0.01-0.21,0-0.42,0.02-0.64c0.03-0.46,0.02-0.93,0.01-1.39c0-0.3-0.03-0.61-0.06-0.91
			c-0.01-0.17-0.01-0.34,0.01-0.52c0.03-0.25,0.03-0.5,0.01-0.75c-0.02-0.46-0.04-0.93,0-1.39c0.03-0.33,0.03-0.66,0-0.99
			c-0.02-0.17-0.01-0.35-0.02-0.52c-0.01-0.65-0.03-1.3-0.04-1.95c0-0.12,0-0.24,0.01-0.36c0.04-0.52,0.08-1.03,0-1.55
			c-0.01-0.09,0-0.19,0.01-0.27c0.04-0.26,0.04-0.53,0.01-0.8c-0.03-0.2-0.03-0.39-0.02-0.59c0.04-0.87,0.01-1.75-0.01-2.62
			c0-0.04-0.01-0.08-0.01-0.12c0-0.01,0-0.03-0.01-0.04c-0.02-0.02-0.04-0.05-0.05-0.05c-0.02,0-0.06,0.02-0.06,0.03
			c-0.12,0.24-0.23,0.47-0.34,0.72c-0.08,0.17-0.17,0.32-0.3,0.46c-0.16,0.17-0.32,0.36-0.47,0.54c-0.09,0.1-0.17,0.2-0.25,0.31
			c-0.27,0.41-0.53,0.83-0.8,1.23c-0.28,0.43-0.52,0.89-0.71,1.37c-0.1,0.26-0.23,0.5-0.4,0.73c-0.1,0.13-0.18,0.26-0.24,0.41
			c-0.2,0.47-0.44,0.93-0.57,1.44c-0.02,0.09-0.06,0.18-0.09,0.26c-0.08,0.23-0.16,0.45-0.24,0.67c-0.03,0.1-0.07,0.2-0.08,0.3
			c-0.03,0.2-0.06,0.39-0.08,0.59c-0.03,0.34-0.11,0.65-0.23,0.96c-0.16,0.39-0.3,0.79-0.56,1.14c-0.08,0.11-0.12,0.23-0.15,0.36
			c-0.04,0.21-0.09,0.41-0.13,0.62c-0.1,0.52-0.2,1.04-0.21,1.57c0,0.25-0.03,0.5-0.08,0.75c-0.07,0.36-0.16,0.72-0.25,1.08
			c-0.01,0.05-0.02,0.1-0.03,0.15c-0.11,0.72-0.18,1.45-0.22,2.17c-0.06,1.03-0.1,2.06-0.09,3.1c0.01,0.52,0.01,1.03-0.02,1.55
			c-0.01,0.37-0.02,0.74,0.12,1.1c0.03,0.08,0.03,0.15,0.02,0.23c-0.05,0.27-0.09,0.55-0.15,0.82c-0.05,0.19-0.02,0.37,0.03,0.54
			c0.07,0.2,0.12,0.41,0.19,0.61c0.07,0.19,0.08,0.38,0.04,0.59c-0.04,0.21-0.07,0.42-0.11,0.62c-0.04,0.2-0.04,0.39,0.02,0.59
			c0.06,0.2,0.12,0.4,0.16,0.61c0.05,0.21,0.13,0.4,0.22,0.59c0.1,0.21,0.21,0.43,0.31,0.65c0.04,0.09,0.09,0.19,0.11,0.29
			c0.07,0.33,0.13,0.65,0.18,0.98c0.05,0.37,0.1,0.74,0.14,1.11c0.01,0.14,0.06,0.26,0.12,0.38c0.14,0.24,0.27,0.49,0.41,0.73
			c0.06,0.12,0.1,0.24,0.1,0.38c0.01,0.2,0.03,0.4,0.02,0.6c-0.01,0.26,0.07,0.5,0.2,0.72c0.03,0.06,0.07,0.12,0.1,0.17
			c0.27,0.41,0.48,0.85,0.65,1.31c0.03,0.06,0.05,0.12,0.08,0.18c0.06,0.15,0.14,0.28,0.24,0.41c0.16,0.21,0.31,0.42,0.48,0.63
			c0.08,0.11,0.13,0.22,0.16,0.36c0.02,0.13,0.06,0.26,0.09,0.39c0.04,0.2,0.1,0.38,0.21,0.55c0.14,0.22,0.27,0.46,0.41,0.68
			c0.63,1.01,1.35,1.96,2.06,2.91c0.02,0.03,0.06,0.06,0.09,0.08c0.02,0.02,0.05,0.03,0.07,0c0.01-0.01,0.02-0.02,0.02-0.03
			c0-0.06,0.02-0.13,0.01-0.2c-0.05-0.62-0.02-1.25,0-1.87c0-0.07,0.01-0.13,0.01-0.2c0.01-0.33,0.01-0.66-0.03-0.99
			c-0.01-0.16-0.02-0.32-0.02-0.47c0-0.2,0-0.4,0-0.6c0-0.18,0-0.37,0.02-0.56c0.04-0.45,0.02-0.9-0.02-1.35
			c-0.04-0.37-0.04-0.74,0-1.11c0.02-0.14,0.02-0.29,0.02-0.44c0.01-0.63,0.01-1.27,0.01-1.91c0-0.72,0.01-1.43-0.03-2.15
			c-0.02-0.34-0.03-0.69,0-1.03c0.02-0.1,0.02-0.21,0.02-0.32c-0.02-0.64,0-1.27,0.01-1.91c0.01-0.49-0.01-0.98-0.06-1.47
			c-0.01-0.09-0.01-0.19,0-0.28c0.06-0.34,0.05-0.68,0.03-1.03c-0.02-0.3-0.05-0.61-0.02-0.91c0.03-0.37,0.03-0.74,0.02-1.12
			c0-0.11,0-0.21,0-0.32c0-0.07,0.05-0.12,0.12-0.13c0.48-0.03,0.95-0.03,1.42,0.02c0.2,0.02,0.39,0.03,0.59,0
			c0.17-0.02,0.34-0.03,0.51-0.03c0.26-0.01,0.53,0.01,0.79-0.01c0.28-0.01,0.55,0.03,0.82,0.08c0.06,0.01,0.09,0.04,0.12,0.09
			c0.15,0.41,0.29,0.82,0.41,1.25c0.06,0.21,0.11,0.44,0.15,0.66c0.05,0.37,0.14,0.73,0.26,1.08c0.14,0.42,0.27,0.86,0.36,1.3
			c0.04,0.18,0.09,0.36,0.16,0.53c0.07,0.18,0.13,0.38,0.16,0.57c0.04,0.24,0.11,0.46,0.19,0.69c0.13,0.37,0.24,0.76,0.3,1.15
			c0.02,0.18,0.06,0.34,0.12,0.5c0.08,0.22,0.13,0.46,0.2,0.69c0.04,0.17,0.09,0.33,0.15,0.49c0.15,0.41,0.25,0.84,0.34,1.26
			c0.03,0.13,0.05,0.26,0.1,0.39c0.21,0.6,0.35,1.22,0.53,1.83c0.15,0.49,0.23,1,0.4,1.5c0.04,0.12,0.06,0.25,0.07,0.39
			c0.02,0.2,0.07,0.39,0.12,0.58c0.07,0.23,0.15,0.45,0.21,0.68c0.05,0.17,0.11,0.33,0.13,0.5c0.03,0.28,0.11,0.54,0.19,0.81
			c0.11,0.37,0.21,0.74,0.25,1.12c0.02,0.16,0.05,0.31,0.11,0.47c0.1,0.3,0.16,0.61,0.19,0.93c0.02,0.19,0.07,0.36,0.14,0.54
			c0.01,0.03,0.05,0.05,0.08,0.07c0.02-0.03,0.04-0.05,0.05-0.07c0.07-0.19,0.1-0.38,0.11-0.58c0.01-0.27,0.04-0.53,0.14-0.78
			c0.06-0.14,0.07-0.28,0.07-0.43c0-0.19,0.02-0.37,0.07-0.55c0.05-0.18,0.09-0.36,0.14-0.54c0.05-0.19,0.1-0.38,0.15-0.58
			c0.06-0.23,0.12-0.46,0.17-0.69c0.04-0.18,0.09-0.36,0.09-0.55c0.01-0.16,0.04-0.31,0.09-0.47c0.12-0.43,0.24-0.86,0.36-1.3
			c0.04-0.13,0.07-0.26,0.08-0.39c0.02-0.29,0.11-0.57,0.21-0.85c0.13-0.38,0.26-0.75,0.32-1.15c0.02-0.1,0.05-0.2,0.08-0.3
			c0.13-0.41,0.25-0.81,0.41-1.2c0.08-0.18,0.13-0.38,0.16-0.57c0.03-0.21,0.08-0.42,0.14-0.62c0.13-0.39,0.26-0.78,0.39-1.17
			c0.13-0.37,0.27-0.75,0.33-1.14c0.03-0.18,0.08-0.36,0.15-0.53c0.06-0.17,0.11-0.35,0.14-0.54c0.03-0.26,0.12-0.52,0.22-0.76
			c0.05-0.13,0.1-0.27,0.12-0.42c0.04-0.26,0.11-0.51,0.21-0.76c0.06-0.16,0.11-0.32,0.13-0.5c0.02-0.17,0.06-0.34,0.13-0.5
			c0.13-0.28,0.2-0.57,0.26-0.87c0.08-0.4,0.2-0.8,0.33-1.19c0.02-0.05,0.06-0.09,0.12-0.09c0.11-0.01,0.21-0.01,0.31-0.01
			c0.56-0.01,1.14-0.01,1.7-0.02c0.16,0,0.31-0.01,0.47-0.03c0.2-0.02,0.39-0.02,0.59,0.01c0.16,0.02,0.31,0.02,0.47,0.03
			c0.09,0,0.18,0,0.28,0.01c0.05,0,0.1,0.05,0.11,0.09c0.01,0.04,0.01,0.08,0.01,0.12c0,0.4,0,0.8,0,1.2c0,0.23,0,0.45,0,0.68
			c0.01,0.45,0.05,0.9,0,1.35c0,0.06,0,0.13,0,0.2c0.01,0.37,0.01,0.74,0.03,1.12c0.02,0.37,0.01,0.74,0,1.11
			c-0.02,0.45,0.01,0.9-0.03,1.35c-0.01,0.1,0.01,0.21,0.01,0.32c0.01,0.37,0.01,0.74,0.01,1.11c0,0.28-0.02,0.56,0.01,0.83
			c0.05,0.53,0.05,1.06,0.04,1.59c-0.01,0.19,0,0.37-0.02,0.56c-0.03,0.44-0.03,0.88,0.01,1.31c0.01,0.16,0.02,0.32-0.01,0.48
			c-0.02,0.17-0.03,0.34-0.03,0.51c0,0.34,0.01,0.69,0.02,1.03c0,0.13,0.01,0.27,0.03,0.4c0.02,0.16,0.02,0.32,0,0.48
			c-0.02,0.17-0.03,0.34-0.03,0.52c0.01,0.46,0.02,0.93,0.04,1.39c0.01,0.16,0.01,0.32-0.02,0.47c-0.04,0.24-0.04,0.47-0.02,0.72
			c0.01,0.21,0.01,0.43,0.01,0.63c0,0.14-0.01,0.27,0,0.4c0.01,0.33,0.01,0.66,0,0.99c-0.01,0.38-0.02,0.77,0.05,1.15
			c0.01,0.07,0.01,0.16,0,0.23c-0.08,0.39-0.06,0.79-0.06,1.19c0,0.12,0,0.23,0,0.36c0,0.06-0.04,0.1-0.09,0.11
			c-0.2,0.05-0.41,0.09-0.62,0.03c-0.21-0.06-0.41-0.05-0.63,0c-0.39,0.08-0.79,0.04-1.18,0.02c-0.01,0-0.03-0.01-0.04-0.01
			c-0.04-0.01-0.1-0.08-0.1-0.12c0-0.13,0-0.26,0-0.4c0.02-0.55,0.02-1.11-0.02-1.67c-0.03-0.42-0.02-0.85,0.05-1.27
			c0.02-0.11,0.02-0.21,0-0.31c-0.04-0.25-0.06-0.5-0.03-0.75c0.02-0.21,0.02-0.42,0-0.64c-0.02-0.22-0.01-0.45,0.02-0.67
			c0.03-0.17,0.03-0.34,0.01-0.52c-0.02-0.16-0.01-0.31,0.01-0.48c0.05-0.46,0.06-0.93-0.02-1.39c-0.03-0.16-0.03-0.32-0.01-0.48
			c0.06-0.37,0.05-0.74,0.06-1.11c0-0.5,0-1.01,0-1.51c0-0.4,0-0.8,0.03-1.19c0.01-0.13,0-0.27-0.01-0.4
			c-0.01-0.17-0.03-0.34-0.03-0.52c-0.01-0.29-0.01-0.58,0-0.87c0-0.15,0-0.29,0.03-0.44c0.03-0.22,0.03-0.45,0.03-0.67
			c0-0.68-0.05-1.35,0.01-2.03c0.01-0.1,0-0.19,0-0.28c-0.01-0.42-0.01-0.85-0.02-1.27c-0.01-0.28,0-0.56,0.04-0.83
			c0-0.08,0.02-0.16,0.02-0.24c-0.03-0.28-0.03-0.55-0.01-0.83c0-0.01-0.02-0.03-0.02-0.03c-0.02,0.01-0.06,0.01-0.07,0.03
			c-0.11,0.24-0.15,0.51-0.2,0.77c-0.07,0.44-0.14,0.89-0.29,1.31c-0.02,0.05-0.02,0.1-0.04,0.16c-0.13,0.54-0.25,1.08-0.39,1.62
			c-0.07,0.29-0.15,0.59-0.17,0.89c-0.02,0.16-0.06,0.32-0.1,0.47c-0.05,0.2-0.12,0.41-0.18,0.6c-0.07,0.22-0.13,0.43-0.17,0.65
			c-0.07,0.38-0.17,0.75-0.32,1.11c-0.09,0.22-0.16,0.45-0.2,0.68c-0.03,0.16-0.07,0.31-0.12,0.46c-0.21,0.52-0.3,1.07-0.5,1.59
			c-0.03,0.08-0.03,0.16-0.04,0.24c-0.05,0.25-0.12,0.49-0.21,0.72c-0.06,0.16-0.11,0.32-0.16,0.49c-0.09,0.33-0.16,0.67-0.26,1
			c-0.21,0.63-0.38,1.27-0.58,1.9c-0.04,0.11-0.08,0.23-0.09,0.34c-0.08,0.43-0.18,0.85-0.33,1.27c-0.02,0.05-0.03,0.1-0.04,0.15
			c-0.06,0.25-0.13,0.49-0.23,0.72c-0.07,0.16-0.1,0.32-0.13,0.5c-0.06,0.43-0.15,0.86-0.32,1.27c-0.07,0.16-0.11,0.32-0.16,0.49
			c-0.09,0.39-0.2,0.77-0.29,1.15c-0.02,0.08-0.05,0.15-0.08,0.22c-0.02,0.06-0.06,0.09-0.11,0.09c-0.16,0.01-0.32,0.01-0.48,0.02
			c-0.57,0.06-1.13,0.02-1.7,0.02c-0.14,0-0.22-0.05-0.27-0.18c-0.14-0.39-0.26-0.78-0.31-1.19c-0.04-0.29-0.11-0.57-0.2-0.85
			c-0.1-0.3-0.2-0.6-0.3-0.91c-0.08-0.2-0.13-0.4-0.16-0.61c-0.03-0.17-0.08-0.34-0.14-0.5c-0.07-0.19-0.13-0.38-0.17-0.57
			c-0.05-0.2-0.11-0.41-0.16-0.61c-0.04-0.17-0.09-0.33-0.12-0.5c-0.08-0.39-0.19-0.77-0.33-1.14c-0.08-0.22-0.14-0.45-0.2-0.69
			c-0.03-0.14-0.05-0.28-0.1-0.42c-0.12-0.34-0.2-0.69-0.3-1.03c-0.09-0.33-0.18-0.66-0.27-1c-0.08-0.31-0.17-0.61-0.26-0.92
			c-0.05-0.18-0.09-0.36-0.17-0.53c-0.1-0.19-0.15-0.4-0.17-0.61c-0.02-0.21-0.07-0.42-0.13-0.62c-0.06-0.2-0.14-0.4-0.21-0.6
			c-0.14-0.39-0.26-0.78-0.3-1.19c-0.01-0.12-0.04-0.23-0.08-0.34c-0.22-0.61-0.38-1.24-0.5-1.88c-0.08-0.39-0.16-0.78-0.31-1.15
			c-0.13-0.32-0.23-0.65-0.31-0.98c-0.08-0.31-0.15-0.61-0.23-0.92c-0.04-0.18-0.09-0.36-0.1-0.55c-0.01-0.13-0.04-0.26-0.07-0.39
			c-0.02-0.06-0.05-0.12-0.08-0.18c-0.01-0.03-0.03-0.05-0.05-0.04c-0.02,0.01-0.04,0.04-0.04,0.05c0.01,0.29,0.03,0.58,0.05,0.87
			c0.02,0.33,0.03,0.66,0,1c-0.04,0.39-0.03,0.77,0.04,1.15c0.06,0.33,0.05,0.66,0.05,0.99c-0.01,0.32-0.01,0.64,0,0.95
			c0.02,0.41,0.03,0.82-0.03,1.23c-0.02,0.14-0.01,0.29,0.02,0.43c0.05,0.24,0.06,0.47,0,0.71c-0.03,0.18-0.04,0.37-0.02,0.55
			c0.03,0.36,0.02,0.71,0,1.07c-0.03,0.36-0.06,0.72-0.02,1.07c0.02,0.32,0.03,0.63-0.01,0.95c-0.01,0.12-0.02,0.24-0.03,0.35
			c-0.01,0.16-0.01,0.32,0.02,0.48c0.03,0.21,0.05,0.42,0.03,0.63c-0.02,0.25-0.02,0.5,0,0.75c0.01,0.34,0.03,0.69,0.01,1.03
			c-0.01,0.22,0,0.45-0.01,0.67c-0.01,0.2-0.01,0.4-0.03,0.59c-0.01,0.15-0.02,0.29-0.01,0.44c0.07,0.6,0.06,1.19,0.02,1.79
			c-0.04,0.49-0.04,0.98-0.01,1.47c0.04,0.45,0.07,0.9,0.04,1.35c-0.01,0.15,0.02,0.26,0.12,0.36c0.08,0.07,0.14,0.16,0.22,0.23
			c1.25,1.38,2.62,2.65,4.06,3.83c0.89,0.73,1.82,1.4,2.79,2.01c0.19,0.12,0.4,0.21,0.59,0.32c0.19,0.11,0.36,0.26,0.55,0.37
			c0.2,0.11,0.39,0.22,0.59,0.33c1.45,0.78,2.91,1.55,4.36,2.32c0.36,0.19,0.74,0.35,1.1,0.53c0.18,0.09,0.37,0.15,0.57,0.17
			c0.17,0.02,0.34,0.06,0.5,0.09c1,0.23,2,0.46,3,0.7c0.21,0.04,0.4,0.12,0.59,0.22c0.22,0.12,0.45,0.23,0.67,0.34
			c0.09,0.05,0.2,0.08,0.3,0.07c0.2,0,0.4,0,0.59,0c0.48,0,0.48-0.01,0.91,0.19c0.24,0.11,0.49,0.19,0.76,0.2
			c0.08,0.01,0.16,0.02,0.24,0.03c0.39,0.08,0.79,0.06,1.18,0.02c0.3-0.03,0.6-0.07,0.9-0.11c0.04-0.01,0.08-0.01,0.12,0
			c0.3,0.02,0.6,0.04,0.9,0.07c0.28,0.04,0.55,0.05,0.82,0.05c0.53-0.01,1.05,0.06,1.57,0.14c0.14,0.02,0.26,0.01,0.39-0.03
			c0.25-0.07,0.51-0.12,0.76-0.2c0.17-0.05,0.33-0.06,0.5-0.02c0.27,0.06,0.54,0.08,0.82,0.03c0.18-0.04,0.36-0.07,0.54-0.1
			c0.19-0.04,0.38-0.09,0.56-0.17c0.12-0.05,0.25-0.09,0.38-0.1c0.37-0.02,0.73-0.13,1.1-0.11c0.05,0,0.11-0.01,0.16-0.02
			c0.79-0.15,1.57,0.19,2.35-0.01l1.38,0.19l0.92,0.29l0.46,0.17l0.21,0.45c0,0,0.04,0.04-0.05,0.26c-0.09,0.22-0.08,0.21-0.29,0.29
			C119.07,187.38,118.96,187.42,118.96,187.42z"/>
		<path class="st1" d="M130.07,150.31c0.31,0.01,0.58,0.02,0.85,0.02c0.18,0,0.37,0,0.55-0.01c0.62-0.03,1.24-0.01,1.86,0
			c0.04,0,0.06,0.06,0.04,0.09c-0.01,0.01-0.01,0.02-0.02,0.03c-0.29,0.38-0.56,0.77-0.89,1.11c-0.24,0.25-0.45,0.52-0.63,0.82
			c-0.12,0.19-0.25,0.37-0.41,0.53c-0.14,0.14-0.25,0.31-0.35,0.48c-0.08,0.14-0.17,0.27-0.29,0.38c-0.3,0.27-0.52,0.6-0.75,0.92
			c-0.12,0.19-0.25,0.38-0.39,0.55c-0.14,0.18-0.28,0.35-0.44,0.51c-0.13,0.14-0.25,0.28-0.34,0.44c-0.11,0.19-0.26,0.37-0.41,0.53
			c-0.31,0.31-0.59,0.65-0.82,1.01c-0.03,0.05-0.06,0.09-0.1,0.13c-0.44,0.59-0.89,1.18-1.34,1.77c-0.14,0.18-0.29,0.35-0.43,0.52
			c-0.06,0.07-0.07,0.14-0.04,0.22c0.1,0.23,0.2,0.46,0.36,0.66c0.24,0.3,0.42,0.64,0.58,0.99c0.1,0.22,0.21,0.43,0.36,0.61
			c0.22,0.27,0.37,0.57,0.53,0.88c0.12,0.25,0.25,0.5,0.41,0.73c0.02,0.03,0.04,0.07,0.06,0.1c0.21,0.44,0.48,0.86,0.72,1.28
			c0.14,0.23,0.27,0.46,0.4,0.68c0.09,0.15,0.17,0.3,0.24,0.46c0.09,0.18,0.19,0.35,0.3,0.51c0.12,0.17,0.23,0.35,0.34,0.53
			c0.07,0.12,0.14,0.26,0.22,0.38c0.15,0.23,0.28,0.48,0.39,0.74c0.05,0.14,0.13,0.26,0.22,0.38c0.24,0.3,0.42,0.64,0.58,0.99
			c0.11,0.25,0.24,0.5,0.42,0.71c0.1,0.11,0.16,0.24,0.22,0.37c0.19,0.44,0.41,0.86,0.69,1.25c0.05,0.06,0.09,0.13,0.13,0.2
			c0.16,0.29,0.33,0.57,0.52,0.85c0.1,0.14,0.17,0.3,0.23,0.46c0.02,0.05-0.01,0.12-0.06,0.13c-0.12,0.02-0.23,0.05-0.35,0.05
			c-0.17,0-0.34,0-0.51-0.02c-0.33-0.04-0.66-0.05-0.99-0.03c-0.08,0.01-0.16,0.01-0.23,0.01c-0.28,0-0.56-0.01-0.83-0.01
			c-0.1,0-0.18-0.03-0.23-0.12c-0.29-0.52-0.63-1.01-0.88-1.56c-0.1-0.22-0.22-0.42-0.37-0.61c-0.11-0.13-0.19-0.29-0.25-0.45
			c-0.15-0.37-0.33-0.72-0.54-1.06c-0.21-0.36-0.43-0.73-0.66-1.09c-0.08-0.13-0.16-0.27-0.22-0.43c-0.07-0.19-0.16-0.36-0.29-0.51
			c-0.13-0.16-0.22-0.34-0.3-0.51c-0.18-0.4-0.39-0.78-0.64-1.14c-0.19-0.27-0.35-0.56-0.49-0.86c-0.08-0.18-0.17-0.36-0.29-0.52
			c-0.11-0.17-0.21-0.34-0.28-0.53c-0.07-0.2-0.18-0.39-0.29-0.56c-0.32-0.51-0.62-1.02-0.89-1.55c-0.02-0.05-0.06-0.09-0.09-0.13
			c-0.02-0.02-0.08-0.03-0.11,0c-0.02,0.02-0.06,0.05-0.08,0.08c-0.26,0.31-0.51,0.63-0.74,0.98c-0.37,0.55-0.76,1.08-1.19,1.59
			c-0.2,0.24-0.4,0.49-0.57,0.76c-0.09,0.15-0.14,0.31-0.14,0.49c0.01,0.65,0,1.3,0,1.95c0,0.17,0,0.34,0,0.52
			c0,0.16-0.01,0.32,0,0.48c0.03,0.43,0.01,0.85-0.03,1.27c-0.02,0.28-0.02,0.56,0,0.83c0.04,0.41,0.06,0.82,0.04,1.23
			c-0.01,0.21,0,0.42,0,0.64c0,0.23,0,0.45-0.01,0.68c0,0.14-0.07,0.16-0.18,0.16c-0.12,0.01-0.24,0.02-0.36,0.01
			c-0.61-0.04-1.21,0-1.82-0.01c-0.08,0-0.16-0.01-0.23-0.02c-0.02,0-0.05-0.03-0.05-0.05c-0.01-0.09-0.01-0.19,0-0.28
			c0.03-0.17,0.03-0.34,0-0.52c-0.01-0.09-0.02-0.19-0.02-0.28c0-0.57-0.04-1.14-0.02-1.71c0.01-0.39,0-0.79-0.01-1.19
			c-0.01-0.36-0.01-0.72,0.01-1.07c0.04-0.57,0.04-1.14-0.01-1.71c-0.02-0.24-0.02-0.48,0.02-0.71c0.02-0.16,0.02-0.32,0-0.48
			c-0.06-0.35-0.05-0.71-0.03-1.07c0.03-0.49,0.04-0.98,0-1.47c0-0.07-0.01-0.13-0.01-0.2c0.04-0.54-0.01-1.09,0-1.63
			c0.01-0.58,0-1.17,0-1.75c0-0.12,0-0.24,0.01-0.36c0.05-0.72,0.02-1.43-0.02-2.15c-0.01-0.13,0-0.26,0-0.4
			c0.01-0.44,0.01-0.88,0.02-1.31c0.01-0.24,0.01-0.48,0.02-0.72c0-0.22,0.02-0.45,0-0.68c-0.05-0.5-0.03-1.01,0-1.51
			c0.02-0.24,0.02-0.48,0-0.72c-0.01-0.12-0.01-0.24,0-0.36c0.02-0.42,0.01-0.85-0.02-1.27c0-0.09,0-0.19,0-0.28
			c0-0.05,0.05-0.1,0.1-0.1c0.02,0,0.05-0.01,0.08-0.01c0.72-0.01,1.44-0.02,2.17-0.03c0.12,0,0.24,0.01,0.36,0.01
			c0.05,0,0.09,0.06,0.09,0.11c0,0.03,0.01,0.05,0,0.08c-0.04,0.33-0.01,0.66,0,0.99c0.02,0.58,0,1.17-0.02,1.75
			c-0.01,0.31-0.02,0.61,0.03,0.91c0.02,0.13,0.03,0.26,0.02,0.4c-0.03,0.45-0.01,0.9-0.01,1.35c0,0.57-0.01,1.14-0.01,1.71
			c0,0.24,0,0.48,0.02,0.72c0.01,0.19,0.01,0.37,0,0.55c-0.06,0.82-0.05,1.64,0,2.46c0.01,0.21,0.01,0.42,0.02,0.63
			c0,0.01,0.01,0.02,0.02,0.03c0.02,0.02,0.05,0.02,0.07,0c0.01-0.01,0.02-0.01,0.03-0.02c0.27-0.34,0.58-0.65,0.78-1.05
			c0.08-0.15,0.18-0.29,0.3-0.41c0.15-0.15,0.28-0.32,0.38-0.5c0.1-0.17,0.22-0.33,0.35-0.48c0.12-0.14,0.23-0.29,0.32-0.45
			c0.1-0.19,0.23-0.36,0.36-0.52c0.1-0.12,0.2-0.25,0.29-0.38c0.22-0.33,0.47-0.64,0.74-0.93c0.16-0.18,0.31-0.36,0.44-0.56
			c0.24-0.37,0.5-0.72,0.76-1.06c0.2-0.25,0.37-0.51,0.54-0.78c0.12-0.18,0.23-0.36,0.38-0.51c0.14-0.14,0.25-0.3,0.37-0.46
			c0.18-0.27,0.38-0.55,0.56-0.82c0.17-0.24,0.35-0.47,0.54-0.68c0.24-0.25,0.43-0.54,0.61-0.83c0.22-0.35,0.45-0.69,0.7-1.01
			C129.95,150.45,130,150.39,130.07,150.31z"/>
		<path class="st1" d="M121.25,128.85c0.02,0.58,0.04,1.17,0.01,1.75c-0.02,0.32,0,0.64,0,0.96c0,0.19,0.01,0.37,0.02,0.56
			c0.02,0.3,0,0.61-0.04,0.91c-0.04,0.27-0.04,0.53,0,0.8c0.07,0.43,0.08,0.87,0.04,1.31c-0.02,0.25-0.02,0.5,0,0.75
			c0.01,0.12,0.01,0.24,0.01,0.36c0,0.3,0,0.34,0.06,0.33c0.11-0.03,0.14-0.15,0.21-0.22c0.09-0.1,0.17-0.21,0.26-0.3
			c0.15-0.17,0.29-0.34,0.42-0.53c0.26-0.38,0.53-0.75,0.79-1.14c0.28-0.41,0.59-0.78,0.88-1.17c0.14-0.18,0.27-0.36,0.41-0.54
			c0.05-0.06,0.09-0.13,0.14-0.19c0.32-0.38,0.58-0.79,0.85-1.19c0.11-0.17,0.23-0.33,0.37-0.47c0.14-0.14,0.27-0.3,0.35-0.47
			c0.1-0.19,0.23-0.36,0.37-0.52c0.07-0.08,0.14-0.16,0.19-0.25c0.19-0.29,0.39-0.57,0.64-0.81c0.06-0.07,0.11-0.15,0.17-0.22
			c0.09-0.14,0.19-0.29,0.28-0.43c0.15-0.25,0.32-0.48,0.53-0.69c0.1-0.1,0.19-0.22,0.26-0.35c0.12-0.21,0.25-0.4,0.4-0.59
			c0.05-0.06,0.1-0.13,0.14-0.19c0.26-0.43,0.6-0.81,0.92-1.2c0.02-0.03,0.05-0.06,0.08-0.09c0.06-0.06,0.12-0.1,0.2-0.1
			c0.27-0.02,0.53-0.03,0.79,0c0.29,0.04,0.58,0.03,0.87,0c0.48-0.05,0.95-0.04,1.42-0.01c0.06,0,0.09,0.07,0.06,0.11
			c-0.02,0.03-0.04,0.06-0.07,0.1c-0.09,0.11-0.18,0.23-0.27,0.34c-0.29,0.32-0.55,0.68-0.79,1.04c-0.14,0.2-0.28,0.38-0.45,0.55
			c-0.14,0.13-0.25,0.27-0.35,0.43c-0.11,0.18-0.25,0.34-0.38,0.5c-0.28,0.32-0.53,0.66-0.77,1.01c-0.26,0.37-0.53,0.73-0.8,1.09
			c-0.03,0.04-0.06,0.08-0.1,0.12c-0.45,0.48-0.84,1.02-1.27,1.51c-0.15,0.17-0.28,0.35-0.39,0.55c-0.1,0.16-0.21,0.31-0.34,0.44
			c-0.16,0.16-0.3,0.34-0.43,0.52c-0.32,0.45-0.68,0.88-1.04,1.3c-0.32,0.38-0.31,0.3-0.04,0.69c0.08,0.12,0.16,0.25,0.23,0.37
			c0.13,0.22,0.25,0.43,0.38,0.65c0.08,0.14,0.16,0.27,0.23,0.42c0.09,0.2,0.21,0.4,0.33,0.59c0.19,0.3,0.36,0.61,0.55,0.92
			c0.31,0.54,0.63,1.07,0.95,1.61c0.08,0.12,0.16,0.25,0.23,0.37c0.23,0.42,0.48,0.82,0.73,1.23c0.09,0.14,0.16,0.27,0.23,0.42
			c0.16,0.38,0.37,0.73,0.6,1.07c0.14,0.2,0.26,0.4,0.35,0.62c0.06,0.16,0.16,0.31,0.25,0.45c0.13,0.18,0.25,0.38,0.35,0.57
			c0.08,0.15,0.17,0.3,0.26,0.44c0.14,0.2,0.26,0.4,0.34,0.63c0.06,0.16,0.15,0.31,0.25,0.45c0.14,0.19,0.26,0.4,0.38,0.6
			c0.2,0.36,0.41,0.71,0.61,1.07c0.06,0.1,0.11,0.21,0.17,0.31c0.09,0.23,0.2,0.46,0.34,0.67c0.06,0.1,0.07,0.19-0.12,0.19
			c-0.12,0-0.24,0.01-0.36,0c-0.25-0.02-0.5,0-0.74,0.01c-0.41,0.03-0.82,0.04-1.22-0.03c-0.17-0.03-0.34-0.01-0.51-0.02
			c-0.08,0-0.15-0.03-0.2-0.11c-0.11-0.18-0.22-0.36-0.32-0.54c-0.12-0.21-0.24-0.41-0.36-0.62c-0.06-0.1-0.12-0.2-0.17-0.31
			c-0.16-0.33-0.35-0.65-0.54-0.97c-0.18-0.31-0.35-0.62-0.53-0.94c-0.16-0.3-0.32-0.61-0.51-0.9c-0.07-0.11-0.13-0.23-0.18-0.35
			c-0.17-0.41-0.37-0.79-0.63-1.15c-0.04-0.05-0.08-0.11-0.11-0.16c-0.23-0.43-0.46-0.87-0.69-1.29c-0.04-0.07-0.07-0.14-0.11-0.22
			c-0.25-0.43-0.5-0.87-0.76-1.3c-0.22-0.35-0.42-0.7-0.59-1.08c-0.13-0.29-0.29-0.57-0.47-0.83c-0.16-0.23-0.31-0.46-0.4-0.72
			c0-0.02-0.01-0.02-0.02-0.04c-0.07-0.15-0.13-0.16-0.22-0.05c-0.11,0.14-0.22,0.27-0.31,0.41c-0.37,0.6-0.81,1.15-1.25,1.69
			c-0.28,0.35-0.57,0.69-0.8,1.08c0,0.01-0.01,0.02-0.02,0.03c-0.09,0.13-0.23,0.24-0.26,0.4c-0.05,0.23-0.08,0.47-0.04,0.71
			c0.05,0.34,0.05,0.68-0.01,1.03c-0.02,0.09-0.02,0.19-0.02,0.27c0.01,0.17,0.01,0.35,0.02,0.52c0.02,0.32,0.03,0.63,0,0.95
			c-0.02,0.13-0.01,0.26,0,0.4c0.04,0.32,0.03,0.64,0.01,0.95c-0.03,0.41-0.03,0.82,0,1.23c0.01,0.25,0,0.5,0,0.76
			c0,0.26,0,0.53,0,0.8c0,0.08-0.01,0.16-0.02,0.24c-0.01,0.04-0.06,0.09-0.11,0.1c-0.06,0.01-0.13,0.02-0.19,0.02
			c-0.25,0-0.5,0-0.75,0c-0.44,0-0.87,0-1.31,0c-0.05,0-0.1,0-0.15-0.02c-0.03-0.01-0.06-0.05-0.07-0.08
			c-0.02-0.03-0.02-0.08-0.02-0.12c0-0.2,0-0.4,0.01-0.6c0.02-0.25,0.03-0.5,0.01-0.75c-0.01-0.09-0.01-0.19-0.01-0.28
			c0-0.07,0-0.13,0-0.2c-0.01-0.56-0.04-1.12,0.01-1.67c0.01-0.02,0-0.05,0-0.08c-0.03-0.66-0.02-1.32-0.03-1.99
			c0-0.13,0-0.27,0-0.4c0.03-0.46,0.04-0.93,0-1.39c-0.02-0.2,0-0.4,0.03-0.59c0.02-0.16,0.03-0.31,0.01-0.47
			c-0.02-0.19-0.02-0.37-0.02-0.56c0-0.25,0-0.51,0-0.76c-0.01-0.5-0.02-1.01,0.01-1.51c0.01-0.23,0-0.45-0.01-0.68
			c-0.02-0.27-0.03-0.53-0.01-0.79c0.01-0.14,0.01-0.27,0.01-0.4c-0.01-0.32-0.01-0.64,0.02-0.95c0.01-0.09,0-0.19,0-0.28
			c0-0.09-0.01-0.19-0.01-0.28c0.01-0.45,0.03-0.9-0.01-1.35c0.06-0.42,0.02-0.84,0.01-1.27c-0.02-0.34-0.01-0.69-0.01-1.03
			c0-0.13,0-0.26,0.02-0.4c0.03-0.28,0.03-0.56,0.03-0.83c0-0.36,0-0.72-0.01-1.07c0-0.1-0.01-0.21-0.03-0.32
			c-0.04-0.26-0.06-0.52-0.03-0.79c0.03-0.2,0.02-0.4,0-0.6c-0.02-0.17-0.02-0.34,0-0.51c0.03-0.22,0.03-0.45,0.01-0.67
			c0-0.05,0-0.11,0-0.16c0-0.05,0.05-0.11,0.09-0.11c0.13-0.01,0.27-0.04,0.39-0.02c0.66,0.08,1.32,0.04,1.97,0.03
			c0.08,0,0.16,0,0.24,0c0.05,0,0.1,0.05,0.1,0.1c0,0.01,0,0.03,0,0.04c-0.05,0.46-0.01,0.93-0.01,1.39
			C121.23,127.23,121.24,128.04,121.25,128.85z"/>
		<path class="st1" d="M106.31,150.31c0.28-0.03,0.53-0.03,0.77-0.02c0.25,0.01,0.5,0.01,0.75-0.01c0.23-0.01,0.45-0.01,0.67-0.01
			c0.37,0.01,0.74,0.02,1.11,0.03c0.04,0,0.08,0.01,0.12,0.02c0.03,0.05,0.07,0.11,0.09,0.17c0.09,0.25,0.17,0.5,0.26,0.75
			c0.08,0.18,0.09,0.39,0.13,0.58c0.03,0.11,0.04,0.23,0.09,0.34c0.29,0.71,0.5,1.45,0.72,2.19c0.08,0.28,0.16,0.56,0.19,0.85
			c0.02,0.16,0.07,0.3,0.12,0.46c0.05,0.16,0.11,0.32,0.18,0.49c0.1,0.26,0.17,0.52,0.22,0.8c0.02,0.14,0.06,0.29,0.12,0.42
			c0.1,0.23,0.18,0.47,0.22,0.72c0.02,0.09,0.05,0.18,0.08,0.27c0.15,0.47,0.3,0.93,0.46,1.4c0.05,0.15,0.09,0.3,0.11,0.46
			c0.03,0.25,0.1,0.49,0.17,0.73c0.14,0.43,0.27,0.86,0.4,1.29c0.1,0.32,0.22,0.63,0.31,0.94c0.19,0.7,0.39,1.41,0.57,2.11
			c0.1,0.41,0.23,0.82,0.38,1.21c0.09,0.24,0.16,0.48,0.2,0.73c0.03,0.16,0.07,0.31,0.14,0.45c0.1,0.22,0.19,0.44,0.21,0.68
			c0,0.01,0,0.02,0.01,0.04c0.15,0.54,0.28,1.1,0.48,1.64c0.12,0.32,0.22,0.65,0.29,0.99c0.1,0.48,0.23,0.95,0.41,1.41
			c0.15,0.38,0.27,0.77,0.36,1.17c0.05,0.19,0.1,0.38,0.15,0.57c0.02,0.05-0.02,0.11-0.07,0.12c-0.19,0.04-0.39,0.06-0.59,0.03
			c-0.47-0.08-0.94-0.06-1.42,0c-0.36,0.05-0.53,0.03-0.9-0.09c-0.1-0.2-0.14-0.42-0.2-0.64c-0.12-0.47-0.24-0.95-0.42-1.4
			c-0.07-0.16-0.09-0.33-0.12-0.5c-0.03-0.18-0.07-0.36-0.14-0.54c-0.07-0.17-0.12-0.35-0.14-0.53c-0.04-0.33-0.14-0.65-0.25-0.96
			c-0.1-0.3-0.19-0.6-0.25-0.92c-0.08-0.41-0.24-0.81-0.4-1.2c-0.02-0.05-0.06-0.09-0.12-0.09c-0.42-0.03-0.84-0.07-1.26-0.08
			c-0.31-0.01-0.63-0.01-0.94,0.04c-0.03,0.01-0.05,0.01-0.08,0.01c-0.52,0-1.05,0.04-1.57,0.02c-0.16-0.01-0.32-0.01-0.48-0.01
			c-0.24,0-0.47-0.01-0.71-0.03c-0.35-0.04-0.71-0.05-1.06,0c-0.28,0.04-0.55,0.04-0.83,0.03c-0.22,0-0.44,0-0.67,0
			c-0.06,0-0.13,0.06-0.14,0.12c-0.01,0.03-0.02,0.05-0.02,0.07c-0.02,0.08-0.03,0.16-0.06,0.23c-0.03,0.12-0.07,0.26-0.12,0.38
			c-0.16,0.4-0.27,0.83-0.37,1.25c-0.04,0.17-0.08,0.34-0.13,0.5c-0.07,0.2-0.13,0.41-0.16,0.61c-0.05,0.35-0.16,0.67-0.28,0.99
			c-0.11,0.27-0.21,0.54-0.25,0.83c-0.02,0.12-0.05,0.24-0.1,0.35c-0.14,0.34-0.23,0.7-0.33,1.06c-0.15,0.53-0.06,0.46-0.59,0.47
			c-0.36,0.01-0.71,0.03-1.07,0.05c-0.35,0.02-0.71,0.04-1.06,0.02c-0.06,0-0.13-0.02-0.19-0.04c-0.03-0.01-0.06-0.06-0.06-0.09
			c0-0.05,0.01-0.1,0.03-0.16c0.14-0.46,0.25-0.92,0.42-1.37c0.07-0.18,0.11-0.38,0.15-0.57c0.09-0.35,0.18-0.7,0.31-1.03
			c0.05-0.12,0.09-0.25,0.11-0.38c0.04-0.26,0.12-0.51,0.23-0.76c0.22-0.5,0.34-1.03,0.45-1.56c0.05-0.24,0.1-0.46,0.2-0.69
			c0.07-0.17,0.11-0.35,0.15-0.53c0.1-0.42,0.21-0.82,0.37-1.22c0.15-0.37,0.27-0.74,0.34-1.14c0.03-0.15,0.08-0.31,0.12-0.46
			c0.05-0.18,0.1-0.36,0.15-0.54c0.06-0.26,0.13-0.51,0.25-0.75c0.08-0.17,0.11-0.35,0.15-0.53c0.03-0.17,0.07-0.33,0.14-0.49
			c0.14-0.3,0.23-0.62,0.31-0.94c0.11-0.45,0.26-0.89,0.38-1.34c0.06-0.19,0.11-0.38,0.16-0.57c0.06-0.22,0.12-0.43,0.21-0.64
			c0.08-0.2,0.13-0.4,0.16-0.61c0.01-0.09,0.03-0.18,0.05-0.27c0.12-0.46,0.25-0.92,0.4-1.37c0.08-0.21,0.13-0.43,0.2-0.65
			c0.1-0.32,0.21-0.65,0.32-0.98c0.07-0.21,0.14-0.42,0.2-0.64c0.06-0.21,0.12-0.43,0.17-0.65c0.09-0.4,0.18-0.8,0.31-1.19
			c0.03-0.1,0.07-0.2,0.09-0.3c0.08-0.33,0.18-0.63,0.32-0.94c0.06-0.13,0.09-0.28,0.13-0.42
			C106.26,150.49,106.28,150.41,106.31,150.31z M111.17,164.95c0.01-0.2-0.01-0.38-0.06-0.56c-0.13-0.42-0.25-0.84-0.32-1.27
			c0-0.02-0.01-0.05-0.02-0.08c-0.14-0.52-0.28-1.05-0.42-1.57c-0.03-0.12-0.05-0.23-0.07-0.35c-0.02-0.18-0.04-0.37-0.09-0.55
			c-0.13-0.47-0.28-0.94-0.43-1.4c-0.13-0.39-0.29-0.77-0.41-1.16c-0.17-0.56-0.33-1.12-0.48-1.68c-0.16-0.61-0.29-1.23-0.48-1.84
			c-0.05-0.15-0.08-0.31-0.08-0.47c0-0.19-0.05-0.37-0.11-0.54c-0.07-0.19-0.13-0.38-0.14-0.58c0-0.01,0-0.03-0.01-0.04
			c-0.01-0.02-0.04-0.04-0.05-0.04c-0.02,0-0.05,0.03-0.06,0.05c-0.02,0.03-0.04,0.07-0.04,0.11c-0.06,0.18-0.1,0.35-0.15,0.53
			c-0.03,0.13-0.07,0.25-0.1,0.38c-0.07,0.44-0.19,0.85-0.34,1.27c-0.13,0.37-0.23,0.76-0.31,1.15c-0.07,0.35-0.12,0.7-0.24,1.05
			c-0.12,0.36-0.22,0.73-0.3,1.11c-0.05,0.24-0.11,0.47-0.21,0.68c-0.07,0.16-0.12,0.32-0.15,0.49c-0.04,0.19-0.08,0.39-0.1,0.59
			c-0.03,0.18-0.07,0.36-0.15,0.53c-0.1,0.22-0.16,0.45-0.22,0.68c-0.05,0.18-0.09,0.36-0.14,0.54c-0.1,0.36-0.2,0.71-0.26,1.08
			c-0.03,0.2-0.08,0.39-0.16,0.57c-0.08,0.18-0.14,0.37-0.16,0.57c-0.02,0.19-0.07,0.36-0.13,0.54c-0.02,0.07-0.04,0.15-0.06,0.23
			c-0.01,0.05,0.04,0.1,0.09,0.1c0.25,0.01,0.5,0.01,0.75-0.03c0.16-0.02,0.32-0.05,0.47-0.01c0.31,0.07,0.62,0.05,0.94,0.02
			c0.22-0.02,0.45-0.04,0.67-0.05c0.54-0.01,1.08-0.01,1.62-0.01c0.16,0,0.32,0.01,0.47,0.04c0.19,0.03,0.37,0.04,0.55,0.02
			c0.27-0.02,0.53-0.04,0.79-0.07C111.1,164.99,111.13,164.97,111.17,164.95z"/>
		<path class="st1" d="M102.06,148.9c-0.34,0.04-0.65,0.06-0.94-0.01c-0.19-0.04-0.37-0.04-0.55-0.02
			c-0.19,0.02-0.37,0.02-0.55,0.01c-0.18-0.01-0.37,0.01-0.55,0.01c-0.07,0-0.13,0-0.2,0c-0.03,0-0.06-0.06-0.05-0.09
			c0.04-0.12,0.09-0.25,0.13-0.37c0.11-0.38,0.23-0.76,0.34-1.15c0.02-0.07,0.04-0.15,0.06-0.23c0.05-0.34,0.13-0.68,0.24-1
			c0.17-0.52,0.32-1.04,0.5-1.55c0.11-0.31,0.2-0.63,0.28-0.95c0.11-0.45,0.22-0.9,0.4-1.33c0.04-0.1,0.07-0.2,0.08-0.31
			c0.05-0.28,0.12-0.54,0.23-0.8c0.15-0.34,0.23-0.71,0.3-1.07c0.07-0.35,0.16-0.7,0.29-1.03c0.09-0.25,0.18-0.5,0.22-0.76
			c0.03-0.16,0.08-0.31,0.14-0.45c0.08-0.2,0.15-0.4,0.19-0.61c0.04-0.21,0.11-0.41,0.19-0.6c0.07-0.17,0.12-0.35,0.18-0.53
			c0.13-0.42,0.26-0.84,0.38-1.25c0.04-0.12,0.06-0.23,0.09-0.34c0.11-0.4,0.21-0.8,0.32-1.19c0.06-0.22,0.11-0.44,0.17-0.66
			c0.09-0.36,0.2-0.71,0.32-1.06c0.09-0.25,0.17-0.5,0.21-0.76c0.03-0.15,0.08-0.28,0.12-0.42c0.07-0.23,0.14-0.46,0.21-0.68
			c0.06-0.19,0.13-0.38,0.2-0.56c0.07-0.17,0.12-0.35,0.16-0.53c0.07-0.32,0.15-0.65,0.22-0.97c0.07-0.29,0.16-0.56,0.28-0.83
			c0.08-0.17,0.12-0.35,0.17-0.53c0.05-0.18,0.1-0.35,0.15-0.53c0.07-0.23,0.13-0.46,0.2-0.69c0.04-0.17,0.1-0.19,0.25-0.2
			c0.21-0.01,0.42-0.02,0.63,0.02c0.19,0.03,0.39,0.03,0.59-0.01c0.11-0.02,0.23-0.03,0.35-0.03c0.33,0,0.66,0,0.98,0.01
			c0.07,0,0.14,0,0.2,0.01c0.6,0.09,0.46-0.05,0.65,0.55c0.1,0.34,0.19,0.69,0.34,1.02c0.08,0.16,0.1,0.33,0.13,0.5
			c0.03,0.17,0.07,0.34,0.14,0.5c0.08,0.21,0.14,0.43,0.19,0.65c0.03,0.16,0.08,0.31,0.14,0.46c0.15,0.37,0.26,0.75,0.37,1.13
			c0.17,0.61,0.35,1.23,0.52,1.83c0.04,0.13,0.07,0.25,0.11,0.39c0.06,0.27,0.14,0.54,0.26,0.79c0.07,0.14,0.12,0.29,0.13,0.46
			c0.01,0.2,0.06,0.39,0.14,0.57c0.09,0.22,0.15,0.45,0.2,0.69c0.03,0.14,0.08,0.28,0.12,0.42c0.04,0.12,0.08,0.25,0.11,0.38
			c0.08,0.35,0.19,0.69,0.35,1.01c0.06,0.11,0.08,0.25,0.11,0.38c0.05,0.19,0.09,0.39,0.14,0.57c0.17,0.61,0.34,1.23,0.51,1.84
			c0.05,0.17,0.1,0.33,0.17,0.49c0.16,0.38,0.29,0.77,0.34,1.18c0.04,0.29,0.13,0.57,0.22,0.85c0.17,0.51,0.35,1.03,0.51,1.54
			c0.1,0.3,0.18,0.61,0.25,0.92c0.1,0.43,0.2,0.85,0.37,1.26c0.09,0.21,0.13,0.43,0.17,0.65c0.07,0.35,0.16,0.69,0.3,1.02
			c0.08,0.2,0.14,0.4,0.18,0.61c0.03,0.2,0.09,0.39,0.17,0.57c0.09,0.23,0.17,0.47,0.23,0.72c0,0.02-0.04,0.08-0.07,0.09
			c-0.01,0-0.03,0.01-0.04,0c-0.73-0.02-1.45,0.05-2.17,0.02c-0.17-0.01-0.34-0.02-0.51-0.03c-0.13-0.01-0.21-0.06-0.26-0.2
			c-0.09-0.24-0.15-0.48-0.21-0.73c-0.02-0.12-0.04-0.24-0.1-0.34c-0.11-0.26-0.17-0.53-0.2-0.81c-0.01-0.16-0.06-0.31-0.12-0.46
			c-0.15-0.38-0.26-0.78-0.33-1.18c-0.03-0.2-0.09-0.39-0.15-0.58c-0.19-0.55-0.35-1.11-0.47-1.68c-0.06-0.26-0.13-0.52-0.24-0.75
			c-0.04-0.08-0.1-0.13-0.18-0.14c-0.39-0.03-0.78-0.05-1.18-0.03c-0.29,0.01-0.58,0.02-0.87,0.02c-0.83-0.01-1.66-0.02-2.49,0.02
			c-0.17,0.01-0.34,0-0.51,0c-0.41,0-0.82,0.01-1.23,0c-0.17,0-0.35,0.01-0.51-0.03c-0.27-0.05-0.52,0-0.79,0.02
			c-0.05,0.01-0.09,0.05-0.12,0.09c0,0.01-0.01,0.02-0.02,0.04c-0.13,0.5-0.34,0.97-0.41,1.49c-0.02,0.1-0.05,0.21-0.08,0.31
			c-0.08,0.27-0.15,0.53-0.24,0.8c-0.03,0.1-0.06,0.2-0.1,0.3c-0.13,0.28-0.21,0.57-0.28,0.87c-0.02,0.1-0.05,0.2-0.09,0.3
			c-0.08,0.28-0.15,0.56-0.24,0.84c-0.14,0.46-0.27,0.91-0.36,1.38C102.19,148.58,102.12,148.73,102.06,148.9z M108.5,139.64
			c0-0.01,0-0.01,0-0.02c0.44,0,0.87-0.01,1.31-0.01c0.36,0,0.71,0.01,1.07,0.01c0.07,0,0.13-0.01,0.2-0.03
			c0.02,0,0.04-0.04,0.04-0.06c0-0.09,0-0.19-0.02-0.27c-0.05-0.24-0.1-0.47-0.14-0.7c-0.03-0.14-0.06-0.29-0.11-0.42
			c-0.12-0.27-0.17-0.56-0.2-0.84c-0.01-0.14-0.05-0.29-0.09-0.43c-0.06-0.2-0.11-0.41-0.16-0.61c-0.05-0.22-0.1-0.44-0.15-0.66
			c-0.06-0.23-0.11-0.46-0.18-0.69c-0.03-0.12-0.05-0.24-0.1-0.34c-0.17-0.33-0.28-0.69-0.35-1.05c-0.01-0.04-0.02-0.08-0.03-0.12
			c-0.14-0.45-0.28-0.91-0.42-1.36c-0.16-0.52-0.28-1.05-0.51-1.55c-0.06-0.23-0.16-0.45-0.16-0.69c-0.01-0.28-0.08-0.55-0.14-0.82
			c-0.11-0.47-0.24-0.95-0.3-1.43c-0.01-0.04-0.03-0.08-0.04-0.11c0-0.01-0.02-0.02-0.03-0.02c-0.02,0-0.06,0.01-0.06,0.02
			c-0.12,0.36-0.23,0.73-0.35,1.1c-0.05,0.17-0.1,0.33-0.13,0.5c-0.05,0.31-0.14,0.59-0.24,0.88c-0.11,0.31-0.2,0.63-0.25,0.96
			c-0.03,0.2-0.08,0.39-0.15,0.57c-0.05,0.15-0.11,0.3-0.13,0.46c-0.06,0.39-0.18,0.77-0.29,1.15c-0.06,0.22-0.13,0.44-0.17,0.65
			c-0.13,0.58-0.28,1.16-0.47,1.72c-0.06,0.16-0.1,0.33-0.13,0.5c-0.02,0.21-0.08,0.41-0.15,0.61c-0.07,0.18-0.12,0.36-0.14,0.54
			c-0.02,0.2-0.08,0.39-0.16,0.57c-0.09,0.19-0.16,0.39-0.18,0.61c0,0.06-0.02,0.13-0.04,0.19c-0.06,0.3-0.14,0.59-0.24,0.88
			c-0.03,0.09-0.05,0.18-0.07,0.27c0,0.01,0.03,0.05,0.05,0.06c0.02,0.01,0.05,0.02,0.08,0.02c0.41,0.01,0.81,0.03,1.22-0.01
			c0.17-0.02,0.34-0.04,0.51-0.03c0.37,0.03,0.74,0.02,1.11,0.01c0.1,0,0.19,0,0.28,0C108.09,139.64,108.3,139.64,108.5,139.64z"/>
	</g>
</g>
</svg>
